700 0 1 0           
11 SatConsumer 23 ASM 220.3.0.930 Unknown 24 Fri Sep 26 15:16:27 2014 
1 9.999999999999999547e-07 1.000000000000000036e-10 
body $1 -1 $-1 $2 $-1 $3 #
rgb_color-st-attrib $-1 -1 $4 $-1 $0 0.7490196078431372584 0.7490196078431372584 0.7490196078431372584 #
lump $-1 -1 $-1 $-1 $5 $0 #
transform $-1 -1 1 0 0 0 1 0 0 0 1 0 0 0 1 no_rotate no_reflect no_shear #
DXID-attrib $-1 -1 $-1 $1 $0 @10 ASM ENTITY @176 {"label":"Body1","asset":"6a2aafe5-34c4-4d9f-89e5-d6156da0a92a","segment":"0","entity":"147","meta":"D3937028-C20C-4E65-B010-94AD418A5C20","metaName":"BodyMetaType","extra":""} #
shell $6 -1 $-1 $-1 $-1 $7 $-1 $2 #
string_attrib-name_attrib-gen-attrib $-1 -1 $-1 $-1 $5 keep keep_kept ignore copy @17 ATF_ExternalShell @4 true #
face $-1 -1 $-1 $8 $9 $5 $-1 $10 forward single #
face $-1 -1 $-1 $11 $12 $5 $-1 $13 forward single #
loop $-1 -1 $-1 $-1 $14 $7 #
cone-surface $-1 -1 $-1 16.63083126363469688 18.95353287289067623 16.25 0 0 -1 -4.777201058178163429 11.07536222948737148 0 1 I I 0 1 12.06172866817248668 forward I I I I #
face $-1 -1 $-1 $15 $16 $5 $-1 $17 forward single #
loop $-1 -1 $-1 $-1 $18 $8 #
plane-surface $-1 -1 $-1 5.035524550459582471 15.63176215653920842 15.5 -0.961330422211525315 -0.275397565948957701 -0 0 0 10 forward_v I I I I #
coedge $-1 -1 $-1 $19 $20 $21 $22 reversed $9 $-1 #
face $-1 -1 $-1 $23 $24 $5 $-1 $25 forward single #
loop $-1 -1 $-1 $-1 $26 $11 #
plane-surface $-1 -1 $-1 5.644098797808101864 14.97144444469474855 17 -0.3527561748630063665 -0.9357152777934215626 -0 0 0 -10 forward_v I I I I #
coedge $-1 -1 $-1 $27 $28 $29 $30 reversed $12 $-1 #
coedge $-1 -1 $-1 $31 $14 $28 $32 reversed $9 $-1 #
coedge $-1 -1 $-1 $14 $31 $33 $34 forward $9 $-1 #
coedge $-1 -1 $-1 $35 $29 $14 $22 forward $36 $-1 #
edge $-1 -1 $-1 $37 -1.442574635406866923 $38 -0.0712598710769249688 $21 $39 forward @7 unknown #
face $-1 -1 $-1 $40 $41 $5 $-1 $42 forward single #
loop $-1 -1 $-1 $-1 $43 $15 #
cone-surface $-1 -1 $-1 0 0 16.25 0 0 1 4.706547674736912157 -15.29210283072372789 0 1 I I 0 -1 16.00000000000000355 forward I I I I #
coedge $-1 -1 $-1 $44 $45 $46 $47 reversed $16 $-1 #
coedge $-1 -1 $-1 $48 $18 $45 $49 forward $12 $-1 #
coedge $-1 -1 $-1 $18 $48 $19 $32 forward $12 $-1 #
coedge $-1 -1 $-1 $21 $46 $18 $30 forward $36 $-1 #
edge $-1 -1 $-1 $50 1.528476618846688062 $37 1.578725796740632292 $29 $51 forward @7 unknown #
coedge $-1 -1 $-1 $20 $19 $52 $53 forward $9 $-1 #
edge $-1 -1 $-1 $54 0 $37 0.1000000000000000888 $19 $55 forward @7 tangent #
coedge $-1 -1 $-1 $56 $57 $20 $34 reversed $58 $-1 #
edge $-1 -1 $-1 $59 0 $38 0.1000000000000000888 $20 $60 forward @7 tangent #
coedge $-1 -1 $-1 $61 $21 $57 $62 forward $36 $-1 #
loop $-1 -1 $-1 $63 $64 $65 #
vertex $-1 -1 $-1 $30 $66 #
vertex $-1 -1 $-1 $62 $67 #
ellipse-curve $-1 -1 $-1 16.63083126363469688 18.95353287289067623 16 -0 -0 -1 -4.777201058178163429 11.07536222948737148 0 1 I I #
face $-1 -1 $-1 $68 $69 $5 $-1 $70 forward single #
loop $-1 -1 $-1 $-1 $71 $23 #
plane-surface $-1 -1 $-1 -5.644098797808134726 14.97144444469473612 15.5 0.35275617486300892 -0.9357152777934206744 0 0 0 -10 forward_v I I I I #
coedge $-1 -1 $-1 $72 $73 $74 $75 reversed $24 $-1 #
coedge $-1 -1 $-1 $76 $26 $73 $77 reversed $16 $-1 #
coedge $-1 -1 $-1 $26 $76 $27 $49 reversed $16 $-1 #
coedge $-1 -1 $-1 $29 $74 $26 $47 forward $36 $-1 #
edge $-1 -1 $-1 $78 0.3290402867180305946 $50 0.3792894646119748803 $46 $79 forward @7 unknown #
coedge $-1 -1 $-1 $28 $27 $80 $81 reversed $12 $-1 #
edge $-1 -1 $-1 $50 -0.05000000000000004441 $82 0.05000000000000004441 $45 $83 forward @7 unknown #
vertex $-1 -1 $-1 $30 $84 #
straight-curve $-1 -1 $-1 9.383296967691574508 0.4549907891702206775 16 -2.753975659489577232 9.613304222115253594 0 I I #
coedge $-1 -1 $-1 $80 $85 $31 $53 reversed $86 $-1 #
edge $-1 -1 $-1 $54 -1.442574635406866923 $59 -0.07125987107692638434 $31 $87 forward @7 unknown #
vertex $-1 -1 $-1 $81 $88 #
straight-curve $-1 -1 $-1 5.035524550459582471 15.63176215653920842 17 0 0 -10 I I #
coedge $-1 -1 $-1 $89 $33 $85 $90 forward $58 $-1 #
coedge $-1 -1 $-1 $33 $89 $35 $62 reversed $58 $-1 #
loop $-1 -1 $-1 $-1 $57 $91 #
vertex $-1 -1 $-1 $53 $92 #
straight-curve $-1 -1 $-1 11.07719320613511016 29.66065213023562563 17 0 0 -10 I I #
coedge $-1 -1 $-1 $93 $35 $94 $95 forward $36 $-1 #
edge $-1 -1 $-1 $38 1.603976829273067617 $96 1.649829437610200955 $35 $97 forward @7 unknown #
loop $-1 -1 $-1 $-1 $98 $65 #
coedge $-1 -1 $-1 $99 $100 $101 $102 forward $36 $-1 #
face $-1 -1 $-1 $103 $36 $5 $-1 $104 forward single #
point $-1 -1 $-1 5.035524550459582471 15.63176215653920842 16 #
point $-1 -1 $-1 11.07719320613511016 29.66065213023562563 16 #
face $-1 -1 $-1 $105 $106 $5 $-1 $107 forward single #
loop $-1 -1 $-1 $-1 $108 $40 #
plane-surface $-1 -1 $-1 -5.035524550459622439 15.63176215653919598 17 0.961330422211525093 -0.2753975659489585337 0 0 0 -10 forward_v I I I I #
coedge $-1 -1 $-1 $109 $110 $111 $112 reversed $41 $-1 #
coedge $-1 -1 $-1 $113 $43 $110 $114 reversed $24 $-1 #
coedge $-1 -1 $-1 $43 $113 $44 $77 forward $24 $-1 #
coedge $-1 -1 $-1 $46 $111 $43 $75 forward $36 $-1 #
edge $-1 -1 $-1 $115 -3.079653360463340483 $78 2.482501943593512284 $74 $116 forward @7 unknown #
coedge $-1 -1 $-1 $45 $44 $117 $118 forward $16 $-1 #
edge $-1 -1 $-1 $119 0 $78 0.1000000000000000888 $73 $120 forward @7 tangent #
vertex $-1 -1 $-1 $47 $121 #
straight-curve $-1 -1 $-1 8.722979030723990945 13.81073451550995479 16 -9.357152777934215848 3.527561748630063665 0 I I #
coedge $-1 -1 $-1 $117 $52 $48 $81 forward $86 $-1 #
edge $-1 -1 $-1 $54 0 $82 0.05024917789394466039 $80 $122 forward @7 unknown #
vertex $-1 -1 $-1 $118 $123 #
straight-curve $-1 -1 $-1 5.173909563288869862 15.14870152253353375 16.5 0 0 10 I I #
point $-1 -1 $-1 5.173909563288869862 15.14870152253353375 16 #
coedge $-1 -1 $-1 $52 $124 $56 $90 reversed $86 $-1 #
loop $-1 -1 $-1 $125 $126 $127 #
ellipse-curve $-1 -1 $-1 16.63083126363469688 18.95353287289067623 17 0 0 -1 -4.777201058178163429 11.07536222948737148 0 1 F -1.442574635406866923 F -0.07125987107692638434 #
point $-1 -1 $-1 5.035524550459582471 15.63176215653920842 17 #
coedge $-1 -1 $-1 $57 $56 $128 $129 reversed $58 $-1 #
edge $-1 -1 $-1 $59 0 $130 0.04585260833703376504 $56 $131 forward @7 unknown #
face $-1 -1 $-1 $132 $58 $5 $-1 $133 forward single #
point $-1 -1 $-1 11.07719320613702152 29.66065213023190594 17 #
coedge $-1 -1 $-1 $134 $61 $135 $136 forward $36 $-1 #
coedge $-1 -1 $-1 $128 $137 $61 $95 reversed $138 $-1 #
edge $-1 -1 $-1 $96 -0.3930122920023919053 $139 -0.3471596836653594309 $61 $140 forward @7 unknown #
vertex $-1 -1 $-1 $95 $141 #
straight-curve $-1 -1 $-1 -3.16120633800035078 22.2753867114404791 16 8.876935928424845912 4.604346698788018166 0 I I #
coedge $-1 -1 $-1 $142 $143 $144 $145 forward $63 $-1 #
coedge $-1 -1 $-1 $146 $64 $147 $148 forward $36 $-1 #
coedge $-1 -1 $-1 $64 $149 $150 $151 forward $36 $-1 #
coedge $-1 -1 $-1 $152 $153 $64 $102 reversed $154 $-1 #
edge $-1 -1 $-1 $155 -1.649829437610150107 $156 -1.603976829273117133 $64 $157 forward @7 unknown #
face $-1 -1 $-1 $158 $159 $5 $-1 $160 reversed single #
plane-surface $-1 -1 $-1 5.004955402355999377e-15 -18.65539486847048423 16 0 0 1 10 0 0 forward_v I I I I #
face $-1 -1 $-1 $161 $154 $5 $-1 $162 forward single #
loop $-1 -1 $-1 $-1 $147 $68 #
cone-surface $-1 -1 $-1 -16.63083126363472886 18.95353287289066202 16.25 0 0 -1 11.28300439927744314 -4.263696775158844154 0 1 I I 0 1 12.06172866817248845 forward I I I I #
coedge $-1 -1 $-1 $163 $164 $146 $165 reversed $69 $-1 #
coedge $-1 -1 $-1 $166 $71 $164 $167 forward $41 $-1 #
coedge $-1 -1 $-1 $71 $166 $72 $114 forward $41 $-1 #
coedge $-1 -1 $-1 $74 $146 $71 $112 forward $36 $-1 #
edge $-1 -1 $-1 $168 -0.3792894646119766566 $115 -0.329040286718032926 $111 $169 forward @7 unknown #
coedge $-1 -1 $-1 $73 $72 $170 $171 forward $24 $-1 #
edge $-1 -1 $-1 $172 0 $115 0.1000000000000000888 $72 $173 forward @7 tangent #
vertex $-1 -1 $-1 $112 $174 #
ellipse-curve $-1 -1 $-1 0 0 16 0 0 1 4.706547674736912157 -15.29210283072372789 0 1 I I #
coedge $-1 -1 $-1 $170 $80 $76 $118 reversed $86 $-1 #
edge $-1 -1 $-1 $119 0 $82 0.05024917789394415385 $76 $175 forward @7 unknown #
vertex $-1 -1 $-1 $171 $176 #
straight-curve $-1 -1 $-1 5.644098797808102752 14.97144444469475211 17 0 0 -10 I I #
point $-1 -1 $-1 5.644098797808102752 14.97144444469475211 16 #
straight-curve $-1 -1 $-1 5.035524550459582471 15.63176215653920842 17 2.753975659489577232 -9.613304222115253594 0 I I #
point $-1 -1 $-1 5.17390956328887075 15.14870152253353197 17 #
coedge $-1 -1 $-1 $85 $177 $178 $179 forward $86 $-1 #
loop $-1 -1 $-1 $-1 $180 $127 #
coedge $-1 -1 $-1 $181 $182 $183 $184 forward $86 $-1 #
face $-1 -1 $-1 $185 $86 $5 $-1 $186 forward single #
coedge $-1 -1 $-1 $178 $94 $89 $129 forward $138 $-1 #
edge $-1 -1 $-1 $96 -0.05000000000000004441 $130 0.05000000000000004441 $89 $187 forward @7 unknown #
vertex $-1 -1 $-1 $90 $188 #
straight-curve $-1 -1 $-1 11.07719320613559688 29.66065213023685843 17 8.876935928424845912 4.604346698788018166 0 I I #
face $-1 -1 $-1 $189 $190 $5 $-1 $191 forward single #
plane-surface $-1 -1 $-1 11.07719320613559688 29.66065213023685843 17 -0.4604346698788018277 0.8876935928424846134 0 0 0 10 forward_v I I I I #
coedge $-1 -1 $-1 $192 $93 $193 $194 forward $36 $-1 #
coedge $-1 -1 $-1 $195 $196 $93 $136 reversed $190 $-1 #
edge $-1 -1 $-1 $139 -1.189438013480254241 $197 5.604456138166625118e-31 $93 $198 forward @7 unknown #
coedge $-1 -1 $-1 $94 $178 $195 $199 forward $138 $-1 #
loop $-1 -1 $-1 $-1 $94 $200 #
vertex $-1 -1 $-1 $95 $201 #
straight-curve $-1 -1 $-1 15.13200657651755421 28.40905421805684838 16 9.28159952819172851 -3.721815443875622798 0 I I #
point $-1 -1 $-1 11.48422387249460108 29.87177343606429858 16 #
coedge $-1 -1 $-1 $202 $98 $203 $204 forward $63 $-1 #
coedge $-1 -1 $-1 $98 $205 $206 $207 forward $63 $-1 #
coedge $-1 -1 $-1 $208 $209 $98 $145 reversed $210 $-1 #
edge $-1 -1 $-1 $211 0 $212 6.300000000000001599 $144 $213 forward @7 unknown #
coedge $-1 -1 $-1 $111 $99 $108 $165 forward $36 $-1 #
coedge $-1 -1 $-1 $214 $215 $99 $148 reversed $106 $-1 #
edge $-1 -1 $-1 $156 -1.453610558540683773 $216 -0.08229579421074180445 $99 $217 forward @7 unknown #
coedge $-1 -1 $-1 $100 $218 $219 $220 forward $36 $-1 #
coedge $-1 -1 $-1 $221 $222 $100 $151 reversed $223 $-1 #
edge $-1 -1 $-1 $224 0.3471596836655137519 $155 0.3930122920022301458 $100 $225 forward @7 unknown #
coedge $-1 -1 $-1 $226 $101 $222 $227 forward $154 $-1 #
coedge $-1 -1 $-1 $101 $226 $214 $228 forward $154 $-1 #
loop $-1 -1 $-1 $-1 $101 $105 #
vertex $-1 -1 $-1 $102 $229 #
vertex $-1 -1 $-1 $102 $230 #
straight-curve $-1 -1 $-1 3.161206337998446969 22.27538671143576465 16 8.876935928424849465 -4.604346698788010173 0 I I #
face $-1 -1 $-1 $231 $232 $5 $-1 $233 reversed single #
loop $-1 -1 $-1 $-1 $234 $103 #
plane-surface $-1 -1 $-1 -16.96745554181276461 -42.39617189163205779 0 -9.868649107779167714e-16 1 0 -10 -9.86864910777916732e-15 0 forward_v I I I I #
face $-1 -1 $-1 $235 $236 $5 $-1 $237 forward single #
plane-surface $-1 -1 $-1 -11.07719320613705882 29.66065213023190239 15.5 0.4604346698788010506 0.8876935928424849465 0 0 0 10 forward_v I I I I #
coedge $-1 -1 $-1 $238 $108 $215 $239 reversed $69 $-1 #
coedge $-1 -1 $-1 $108 $238 $109 $167 reversed $69 $-1 #
edge $-1 -1 $-1 $216 -1.57872579674062985 $168 -1.528476618846685842 $146 $240 forward @7 unknown #
coedge $-1 -1 $-1 $110 $109 $241 $242 reversed $41 $-1 #
edge $-1 -1 $-1 $168 -0.05000000000000004441 $243 0.05000000000000004441 $164 $244 forward @7 unknown #
vertex $-1 -1 $-1 $112 $245 #
straight-curve $-1 -1 $-1 -8.722979030724044236 13.81073451550992992 16 -9.357152777934206966 -3.527561748630088978 0 I I #
coedge $-1 -1 $-1 $241 $117 $113 $171 reversed $86 $-1 #
edge $-1 -1 $-1 $172 -3.079653360463340483 $119 2.482501943593511395 $113 $246 forward @7 unknown #
vertex $-1 -1 $-1 $242 $247 #
straight-curve $-1 -1 $-1 -5.644098797808134726 14.97144444469473612 17 0 0 -10 I I #
point $-1 -1 $-1 -5.644098797808134726 14.97144444469473612 16 #
straight-curve $-1 -1 $-1 5.644098797808101864 14.97144444469474855 17 -9.357152777934215848 3.527561748630063665 0 I I #
point $-1 -1 $-1 5.644098797808114298 14.97144444469474145 17 #
coedge $-1 -1 $-1 $124 $248 $249 $250 reversed $86 $-1 #
coedge $-1 -1 $-1 $137 $128 $124 $179 reversed $138 $-1 #
edge $-1 -1 $-1 $251 0 $130 0.04585260833703211358 $124 $252 forward @7 unknown #
coedge $-1 -1 $-1 $253 $254 $255 $256 forward $125 $-1 #
coedge $-1 -1 $-1 $248 $126 $257 $258 forward $86 $-1 #
coedge $-1 -1 $-1 $126 $259 $260 $261 reversed $86 $-1 #
coedge $-1 -1 $-1 $262 $263 $126 $184 reversed $264 $-1 #
edge $-1 -1 $-1 $265 -6.100000000000000533 $266 0.1000000000000005329 $126 $267 forward @7 unknown #
face $-1 -1 $-1 $268 $269 $5 $-1 $270 forward single #
plane-surface $-1 -1 $-1 -31.49999999999999289 0 17 0 0 1 10 0 0 forward_v I I I I #
straight-curve $-1 -1 $-1 11.48422387249460108 29.87177343606429858 16.5 0 0 10 I I #
point $-1 -1 $-1 11.48422387249460286 29.87177343606429858 17 #
face $-1 -1 $-1 $127 $223 $5 $-1 $271 forward single #
loop $-1 -1 $-1 $-1 $135 $132 #
cone-surface $-1 -1 $-1 0 0 16.25 0 0 -1 32.00000000000000711 0 0 1 I I 0 1 32.00000000000000711 forward I I I I #
coedge $-1 -1 $-1 $218 $134 $272 $273 forward $36 $-1 #
coedge $-1 -1 $-1 $274 $275 $134 $194 reversed $276 $-1 #
edge $-1 -1 $-1 $197 -0.9327697434235235896 $277 5.267230256576475256 $134 $278 forward @7 unknown #
coedge $-1 -1 $-1 $249 $135 $137 $199 reversed $190 $-1 #
coedge $-1 -1 $-1 $135 $249 $274 $279 forward $190 $-1 #
vertex $-1 -1 $-1 $194 $280 #
ellipse-curve $-1 -1 $-1 0 0 16 -0 -0 -1 32.00000000000000711 0 0 1 I I #
edge $-1 -1 $-1 $251 0 $139 0.1000000000000000888 $195 $281 forward @7 tangent #
face $-1 -1 $-1 $91 $138 $5 $-1 $282 forward single #
point $-1 -1 $-1 11.90980942040195956 29.70111849021354544 16 #
coedge $-1 -1 $-1 $283 $142 $284 $285 forward $63 $-1 #
coedge $-1 -1 $-1 $286 $287 $142 $204 reversed $288 $-1 #
edge $-1 -1 $-1 $212 0 $289 6.600000000000000533 $203 $290 forward @7 unknown #
coedge $-1 -1 $-1 $143 $291 $292 $293 forward $63 $-1 #
coedge $-1 -1 $-1 $294 $295 $143 $207 reversed $296 $-1 #
edge $-1 -1 $-1 $297 0 $211 1.216213669850104706 $206 $298 forward @7 unknown #
coedge $-1 -1 $-1 $299 $144 $295 $300 reversed $210 $-1 #
coedge $-1 -1 $-1 $144 $299 $286 $301 forward $210 $-1 #
loop $-1 -1 $-1 $-1 $299 $302 #
vertex $-1 -1 $-1 $300 $303 #
vertex $-1 -1 $-1 $301 $304 #
straight-curve $-1 -1 $-1 -33 0 16 3.524517538492559757e-15 -10 0 I I #
coedge $-1 -1 $-1 $305 $147 $153 $228 reversed $106 $-1 #
coedge $-1 -1 $-1 $147 $305 $163 $239 forward $106 $-1 #
vertex $-1 -1 $-1 $165 $306 #
ellipse-curve $-1 -1 $-1 -16.63083126363472886 18.95353287289066202 16 -0 -0 -1 11.28300439927744314 -4.263696775158844154 0 1 I I #
coedge $-1 -1 $-1 $149 $192 $307 $308 forward $36 $-1 #
coedge $-1 -1 $-1 $309 $310 $149 $220 reversed $269 $-1 #
edge $-1 -1 $-1 $311 -1.216213669850104706 $224 -0.02677565636985175176 $149 $312 forward @7 unknown #
coedge $-1 -1 $-1 $313 $150 $310 $314 reversed $223 $-1 #
coedge $-1 -1 $-1 $150 $313 $152 $227 reversed $223 $-1 #
loop $-1 -1 $-1 $-1 $150 $189 #
vertex $-1 -1 $-1 $151 $315 #
straight-curve $-1 -1 $-1 -15.13200657651751335 28.40905421805249631 16 9.281599528191730286 3.721815443875617468 0 I I #
coedge $-1 -1 $-1 $153 $152 $316 $317 reversed $154 $-1 #
edge $-1 -1 $-1 $155 -0.05000000000000004441 $318 0.05000000000000004441 $222 $319 forward @7 unknown #
edge $-1 -1 $-1 $320 0 $156 0.1000000000000000888 $214 $321 forward @7 tangent #
point $-1 -1 $-1 -11.48422387249605947 29.87177343605933899 16 #
point $-1 -1 $-1 -11.07719320613705882 29.66065213023190239 16 #
face $-1 -1 $-1 $322 $323 $5 $-1 $324 reversed single #
loop $-1 -1 $-1 $-1 $325 $158 #
plane-surface $-1 -1 $-1 -16.96745554181275395 -54.39617189163205069 0 1 9.251858538542975772e-16 0 -9.251858538542975377e-15 10 0 forward_v I I I I #
coedge $-1 -1 $-1 $326 $327 $328 $329 reversed $159 $-1 #
face $-1 -1 $-1 $200 $276 $5 $-1 $330 forward single #
loop $-1 -1 $-1 $-1 $272 $161 #
plane-surface $-1 -1 $-1 31.00000000000001776 -61.99999999999998579 17 5.730183352904033598e-16 -1 0 0 0 -10 forward_v I I I I #
coedge $-1 -1 $-1 $164 $163 $331 $332 forward $69 $-1 #
edge $-1 -1 $-1 $333 0 $216 0.1000000000000000888 $215 $334 forward @7 tangent #
straight-curve $-1 -1 $-1 -9.383296967691620694 0.4549907891702301144 16 -2.753975659489585226 -9.613304222115250042 0 I I #
coedge $-1 -1 $-1 $331 $170 $166 $242 forward $86 $-1 #
edge $-1 -1 $-1 $172 0 $243 0.05024917789394353629 $241 $335 forward @7 unknown #
vertex $-1 -1 $-1 $332 $336 #
straight-curve $-1 -1 $-1 -5.173909563288907165 15.14870152253351776 16.5 0 0 10 I I #
point $-1 -1 $-1 -5.173909563288907165 15.14870152253351776 16 #
ellipse-curve $-1 -1 $-1 0 0 17 0 0 1 4.706547674736912157 -15.29210283072372789 0 1 F -3.079653360463340483 F 2.482501943593511395 #
point $-1 -1 $-1 -5.644098797808134726 14.97144444469473612 17 #
coedge $-1 -1 $-1 $177 $181 $337 $338 reversed $86 $-1 #
coedge $-1 -1 $-1 $196 $195 $177 $250 forward $190 $-1 #
edge $-1 -1 $-1 $251 -1.189438013480254241 $339 -5.55940673412304911e-16 $249 $340 forward @7 unknown #
vertex $-1 -1 $-1 $179 $341 #
straight-curve $-1 -1 $-1 11.90980942040195956 29.70111849021354544 17 -9.28159952819172851 3.721815443875622798 0 I I #
coedge $-1 -1 $-1 $342 $180 $343 $344 forward $125 $-1 #
coedge $-1 -1 $-1 $180 $345 $346 $347 forward $125 $-1 #
coedge $-1 -1 $-1 $348 $349 $180 $256 reversed $350 $-1 #
edge $-1 -1 $-1 $351 -1.216213669850104706 $352 -0.02677565636985190442 $180 $353 forward @7 unknown #
coedge $-1 -1 $-1 $354 $355 $181 $258 reversed $236 $-1 #
edge $-1 -1 $-1 $266 -6.299999999999997158 $356 0.100000000000000977 $181 $357 forward @7 unknown #
coedge $-1 -1 $-1 $182 $316 $313 $358 reversed $86 $-1 #
coedge $-1 -1 $-1 $310 $309 $182 $261 forward $269 $-1 #
edge $-1 -1 $-1 $265 -1.216213669850104706 $359 -0.02677565636985198075 $260 $360 forward @7 unknown #
coedge $-1 -1 $-1 $307 $183 $309 $361 forward $264 $-1 #
coedge $-1 -1 $-1 $183 $307 $354 $362 forward $264 $-1 #
loop $-1 -1 $-1 $-1 $307 $268 #
vertex $-1 -1 $-1 $184 $363 #
vertex $-1 -1 $-1 $258 $364 #
straight-curve $-1 -1 $-1 -31.99999999999997868 -61.00000000000001421 17 0 -10 0 I I #
face $-1 -1 $-1 $365 $264 $5 $-1 $366 forward single #
loop $-1 -1 $-1 $-1 $219 $185 #
cone-surface $-1 -1 $-1 0 0 16.25 0 0 -1 -11.1103684712313715 30.00932709064747073 0 1 I I 0 1 32 forward I I I I #
plane-surface $-1 -1 $-1 -11.90980942040342327 29.70111849020859296 17 -0.3721815443875617357 0.928159952819173073 0 0 0 10 forward_v I I I I #
coedge $-1 -1 $-1 $355 $354 $192 $273 reversed $236 $-1 #
edge $-1 -1 $-1 $277 -1.650000000000000355 $367 4.749999999999999112 $192 $368 forward @7 unknown #
coedge $-1 -1 $-1 $337 $193 $196 $279 reversed $276 $-1 #
coedge $-1 -1 $-1 $193 $337 $355 $369 reversed $276 $-1 #
loop $-1 -1 $-1 $-1 $193 $235 #
vertex $-1 -1 $-1 $273 $370 #
straight-curve $-1 -1 $-1 32.00000000000000711 -9.327697434235236784 16 4.368090588689142181e-15 -10 0 I I #
edge $-1 -1 $-1 $339 0 $197 0.1000000000000000888 $196 $371 forward @7 tangent #
point $-1 -1 $-1 32.00000000000132161 -1.793425964213394026e-29 16 #
straight-curve $-1 -1 $-1 11.90980942040195956 29.70111849021354544 17 0 0 -10 I I #
plane-surface $-1 -1 $-1 11.90980942040195956 29.70111849021354544 15.5 0.3721815443875622909 0.928159952819172851 0 0 0 10 forward_v I I I I #
coedge $-1 -1 $-1 $372 $202 $373 $374 forward $63 $-1 #
coedge $-1 -1 $-1 $375 $376 $202 $285 reversed $377 $-1 #
edge $-1 -1 $-1 $289 0 $378 6.299999999999997158 $284 $379 forward @7 unknown #
coedge $-1 -1 $-1 $380 $203 $209 $301 reversed $288 $-1 #
coedge $-1 -1 $-1 $203 $380 $375 $381 forward $288 $-1 #
loop $-1 -1 $-1 $-1 $380 $382 #
vertex $-1 -1 $-1 $381 $383 #
straight-curve $-1 -1 $-1 -32.99999999999997868 -63.00000000000001421 16 10 6.728624391667615731e-15 0 I I #
coedge $-1 -1 $-1 $205 $372 $384 $385 forward $63 $-1 #
coedge $-1 -1 $-1 $386 $387 $205 $293 reversed $388 $-1 #
edge $-1 -1 $-1 $389 0 $297 1.524870429617610323 $292 $390 forward @7 unknown #
coedge $-1 -1 $-1 $391 $206 $387 $392 reversed $296 $-1 #
coedge $-1 -1 $-1 $206 $391 $208 $300 forward $296 $-1 #
loop $-1 -1 $-1 $-1 $391 $393 #
vertex $-1 -1 $-1 $392 $394 #
ellipse-curve $-1 -1 $-1 0 0 16 0 0 1 -11.45756748595735175 30.94711856223019808 0 1 I I #
coedge $-1 -1 $-1 $209 $208 $395 $396 forward $210 $-1 #
edge $-1 -1 $-1 $397 0 $211 1.600000000000000089 $208 $398 forward @7 tangent #
edge $-1 -1 $-1 $399 0 $212 1.600000000000000089 $209 $400 forward @7 unknown #
face $-1 -1 $-1 $401 $210 $5 $-1 $402 forward single #
point $-1 -1 $-1 -33 0 16 #
point $-1 -1 $-1 -32.99999999999997868 -63.00000000000001421 16 #
coedge $-1 -1 $-1 $215 $214 $403 $404 forward $106 $-1 #
point $-1 -1 $-1 -5.035524550463637006 15.63176215654033996 16 #
coedge $-1 -1 $-1 $263 $262 $218 $308 reversed $264 $-1 #
edge $-1 -1 $-1 $367 -2.217230256576476766 $311 3.982769743423525188 $218 $405 forward @7 unknown #
coedge $-1 -1 $-1 $260 $219 $262 $361 reversed $269 $-1 #
coedge $-1 -1 $-1 $219 $260 $221 $314 forward $269 $-1 #
vertex $-1 -1 $-1 $220 $406 #
ellipse-curve $-1 -1 $-1 0 0 16 -0 -0 -1 -11.1103684712313715 30.00932709064747073 0 1 I I #
coedge $-1 -1 $-1 $222 $221 $259 $358 forward $223 $-1 #
edge $-1 -1 $-1 $359 0 $224 0.1000000000000000888 $310 $407 forward @7 tangent #
point $-1 -1 $-1 -11.90980942040150126 29.70111849021229489 16 #
coedge $-1 -1 $-1 $259 $403 $226 $317 forward $86 $-1 #
edge $-1 -1 $-1 $320 0 $318 0.04585260833703296013 $316 $408 forward @7 unknown #
vertex $-1 -1 $-1 $358 $409 #
straight-curve $-1 -1 $-1 -11.48422387249605947 29.87177343605933899 16.5 0 0 10 I I #
vertex $-1 -1 $-1 $317 $410 #
straight-curve $-1 -1 $-1 -11.07719320613705882 29.66065213023190239 17 0 0 -10 I I #
face $-1 -1 $-1 $393 $411 $5 $-1 $412 reversed single #
loop $-1 -1 $-1 $-1 $413 $231 #
plane-surface $-1 -1 $-1 -25.96745554181275395 -54.396171891632072 0 1.973729821555833937e-15 -1 0 10 1.97372982155583378e-14 0 forward_v I I I I #
coedge $-1 -1 $-1 $414 $415 $416 $417 reversed $232 $-1 #
coedge $-1 -1 $-1 $418 $234 $415 $419 forward $159 $-1 #
coedge $-1 -1 $-1 $234 $418 $420 $421 reversed $159 $-1 #
coedge $-1 -1 $-1 $422 $416 $234 $329 forward $423 $-1 #
edge $-1 -1 $-1 $424 0.8483727770906397403 $425 1.748372777090639874 $328 $426 forward @7 unknown #
plane-surface $-1 -1 $-1 32 6.16297582203915473e-32 17 1 4.368090588689142378e-16 0 0 0 -10 forward_v I I I I #
coedge $-1 -1 $-1 $403 $241 $238 $332 reversed $86 $-1 #
edge $-1 -1 $-1 $333 0 $243 0.05024917789394444528 $238 $427 forward @7 unknown #
vertex $-1 -1 $-1 $404 $428 #
straight-curve $-1 -1 $-1 -5.035524550463637006 15.63176215654033996 17 0 0 -10 I I #
straight-curve $-1 -1 $-1 -5.644098797808134726 14.97144444469473612 17 9.357152777934206966 3.527561748630088978 0 I I #
point $-1 -1 $-1 -5.173909563288907165 15.14870152253351776 17 #
coedge $-1 -1 $-1 $275 $274 $248 $338 forward $276 $-1 #
edge $-1 -1 $-1 $339 0 $356 6.199999999999997513 $337 $429 forward @7 unknown #
vertex $-1 -1 $-1 $250 $430 #
ellipse-curve $-1 -1 $-1 0 0 17 0 0 -1 32.00000000000000711 0 0 1 F -1.189438013480254241 F -5.55940673412304911e-16 #
point $-1 -1 $-1 11.90980942040195956 29.70111849021354544 17 #
coedge $-1 -1 $-1 $431 $253 $432 $433 forward $125 $-1 #
coedge $-1 -1 $-1 $434 $435 $253 $344 reversed $436 $-1 #
edge $-1 -1 $-1 $352 -1.453610558540683551 $437 -0.08229579421074266488 $253 $438 forward @7 unknown #
coedge $-1 -1 $-1 $254 $439 $440 $441 forward $125 $-1 #
coedge $-1 -1 $-1 $442 $443 $254 $347 reversed $444 $-1 #
edge $-1 -1 $-1 $445 0 $351 6.100000000000000533 $254 $446 forward @7 unknown #
coedge $-1 -1 $-1 $447 $255 $443 $448 reversed $350 $-1 #
coedge $-1 -1 $-1 $255 $447 $434 $449 forward $350 $-1 #
loop $-1 -1 $-1 $-1 $447 $365 #
vertex $-1 -1 $-1 $347 $450 #
vertex $-1 -1 $-1 $256 $451 #
ellipse-curve $-1 -1 $-1 0 0 17 0 0 -1 -10.76316945650539125 29.07153561906472916 0 1 F -1.216213669850104706 F -0.02677565636985190442 #
coedge $-1 -1 $-1 $272 $257 $263 $362 reversed $236 $-1 #
coedge $-1 -1 $-1 $257 $272 $275 $369 forward $236 $-1 #
vertex $-1 -1 $-1 $338 $452 #
straight-curve $-1 -1 $-1 31.00000000000001776 -61.99999999999998579 17 10 0 0 I I #
edge $-1 -1 $-1 $359 0 $318 0.04585260833703273808 $313 $453 forward @7 unknown #
vertex $-1 -1 $-1 $261 $454 #
ellipse-curve $-1 -1 $-1 0 0 17 0 0 -1 -11.1103684712313715 30.00932709064747073 0 1 F -1.216213669850104706 F -0.02677565636985198075 #
edge $-1 -1 $-1 $265 0 $311 0.1000000000000000888 $262 $455 forward @7 tangent #
edge $-1 -1 $-1 $367 -0.05000000000000004441 $266 0.05000000000000004441 $354 $456 forward @7 unknown #
point $-1 -1 $-1 -32 -8.881784197001252323e-15 17 #
point $-1 -1 $-1 -31.99999999999996447 -62.00000000000002132 17 #
face $-1 -1 $-1 $457 $350 $5 $-1 $458 reversed single #
plane-surface $-1 -1 $-1 -31.99999999999997868 -61.00000000000001421 17 -1 -3.64007549057428285e-16 0 0 0 10 forward_v I I I I #
vertex $-1 -1 $-1 $273 $459 #
straight-curve $-1 -1 $-1 15.50000000000002487 -61.99999999999999289 16 -10 -5.730183352904033401e-15 0 I I #
edge $-1 -1 $-1 $277 -0.05000000000000004441 $356 0.05000000000000004441 $275 $460 forward @7 unknown #
point $-1 -1 $-1 32.00000000000002842 -61.99999999999999289 16 #
straight-curve $-1 -1 $-1 32.00000000000132161 -1.793425964213394026e-29 17 0 0 -10 I I #
coedge $-1 -1 $-1 $291 $283 $461 $462 forward $63 $-1 #
coedge $-1 -1 $-1 $463 $464 $283 $374 reversed $465 $-1 #
edge $-1 -1 $-1 $378 0 $466 1.216213669850106038 $373 $467 forward @7 unknown #
coedge $-1 -1 $-1 $468 $284 $287 $381 reversed $377 $-1 #
coedge $-1 -1 $-1 $284 $468 $463 $469 forward $377 $-1 #
loop $-1 -1 $-1 $-1 $468 $470 #
vertex $-1 -1 $-1 $469 $471 #
straight-curve $-1 -1 $-1 33.00000000000002842 -62.99999999999997158 16 -4.229421046191074075e-15 10 0 I I #
coedge $-1 -1 $-1 $287 $286 $472 $473 forward $288 $-1 #
edge $-1 -1 $-1 $474 0 $289 1.600000000000000089 $287 $475 forward @7 unknown #
face $-1 -1 $-1 $302 $288 $5 $-1 $476 forward single #
point $-1 -1 $-1 33.00000000000002842 -62.99999999999997158 16 #
coedge $-1 -1 $-1 $477 $478 $291 $385 reversed $479 $-1 #
edge $-1 -1 $-1 $480 -2.544441236719964916 $389 3.141592653589793116 $384 $481 forward @7 unknown #
coedge $-1 -1 $-1 $482 $292 $478 $483 reversed $388 $-1 #
coedge $-1 -1 $-1 $292 $482 $294 $392 forward $388 $-1 #
loop $-1 -1 $-1 $-1 $482 $484 #
vertex $-1 -1 $-1 $483 $485 #
ellipse-curve $-1 -1 $-1 -16.63083126363472886 18.95353287289066202 16 0 0 1 12.21844281856887449 -4.617186469087172895 0 1 I I #
coedge $-1 -1 $-1 $295 $294 $486 $487 forward $296 $-1 #
edge $-1 -1 $-1 $488 0 $297 1.600000000000000089 $387 $489 forward @7 unknown #
face $-1 -1 $-1 $484 $296 $5 $-1 $490 forward single #
point $-1 -1 $-1 -11.45756748595735175 30.94711856223020163 16 #
coedge $-1 -1 $-1 $486 $472 $299 $396 reversed $491 $-1 #
edge $-1 -1 $-1 $397 0 $399 6.300000000000001599 $299 $492 forward @7 unknown #
vertex $-1 -1 $-1 $396 $493 #
straight-curve $-1 -1 $-1 -33 0 0 0 0 10 I I #
vertex $-1 -1 $-1 $396 $494 #
straight-curve $-1 -1 $-1 -32.99999999999997868 -63.00000000000001421 0 0 0 10 I I #
face $-1 -1 $-1 $-1 $423 $5 $-1 $495 reversed single #
plane-surface $-1 -1 $-1 -33 0 0 -1 -3.524517538492559757e-16 0 3.524517538492559757e-15 -10 0 forward_v I I I I #
coedge $-1 -1 $-1 $316 $331 $305 $404 reversed $86 $-1 #
edge $-1 -1 $-1 $320 -1.453610558540683773 $333 -0.08229579421074259549 $305 $496 forward @7 unknown #
straight-curve $-1 -1 $-1 -31.99999999999998579 -39.82769743423525455 16 -3.640075490574282653e-15 10 0 I I #
point $-1 -1 $-1 -32 0 16 #
straight-curve $-1 -1 $-1 -11.90980942040150126 29.70111849021229489 17 0 0 -10 I I #
straight-curve $-1 -1 $-1 -11.07719320613705882 29.66065213023190239 17 -8.876935928424849465 4.604346698788010173 0 I I #
point $-1 -1 $-1 -11.48422387249605947 29.87177343605933899 17 #
point $-1 -1 $-1 -11.07719320613705882 29.66065213023190239 17 #
loop $-1 -1 $-1 $-1 $497 $322 #
plane-surface $-1 -1 $-1 -25.96745554181276816 -42.3961718916320649 0 -1 -1.11022302462515654e-15 0 1.11022302462515654e-14 -10 0 forward_v I I I I #
coedge $-1 -1 $-1 $498 $499 $500 $501 reversed $323 $-1 #
coedge $-1 -1 $-1 $502 $325 $499 $503 forward $232 $-1 #
coedge $-1 -1 $-1 $325 $502 $326 $419 reversed $232 $-1 #
coedge $-1 -1 $-1 $328 $500 $325 $417 forward $423 $-1 #
edge $-1 -1 $-1 $504 -1.787038851158077257 $424 -0.5870388511580779678 $416 $505 forward @7 unknown #
coedge $-1 -1 $-1 $327 $326 $506 $507 reversed $159 $-1 #
edge $-1 -1 $-1 $424 0 $508 0.1999999999999999556 $415 $509 forward @7 unknown #
coedge $-1 -1 $-1 $510 $497 $327 $421 forward $411 $-1 #
edge $-1 -1 $-1 $425 0 $511 0.1999999999999999556 $420 $512 forward @7 unknown #
coedge $-1 -1 $-1 $500 $328 $497 $513 forward $423 $-1 #
loop $-1 -1 $-1 $491 $328 $401 #
vertex $-1 -1 $-1 $329 $514 #
vertex $-1 -1 $-1 $329 $515 #
straight-curve $-1 -1 $-1 -8.483727770906368093 -42.39617189163205069 0 -10 -9.86864910777916732e-15 0 I I #
straight-curve $-1 -1 $-1 -5.035524550459622439 15.63176215653919598 17 -2.753975659489585226 -9.613304222115250042 0 I I #
point $-1 -1 $-1 -5.035524550459610893 15.63176215653919776 17 #
straight-curve $-1 -1 $-1 32 6.16297582203915473e-32 17 4.368090588689142181e-15 -10 0 I I #
point $-1 -1 $-1 32.00000000000000711 1.779010154919376031e-14 17 #
coedge $-1 -1 $-1 $516 $342 $517 $518 forward $125 $-1 #
coedge $-1 -1 $-1 $519 $520 $342 $433 reversed $521 $-1 #
edge $-1 -1 $-1 $437 -3.079653360463340483 $522 2.482501943593511395 $342 $523 forward @7 unknown #
coedge $-1 -1 $-1 $524 $343 $349 $449 reversed $436 $-1 #
coedge $-1 -1 $-1 $343 $524 $519 $525 forward $436 $-1 #
loop $-1 -1 $-1 $-1 $524 $457 #
vertex $-1 -1 $-1 $344 $526 #
ellipse-curve $-1 -1 $-1 -16.63083126363472886 18.95353287289066202 17 0 0 -1 10.34756597998600824 -3.910207081230515413 0 1 F -1.453610558540683551 F -0.08229579421074266488 #
coedge $-1 -1 $-1 $345 $516 $527 $528 forward $125 $-1 #
coedge $-1 -1 $-1 $529 $530 $345 $441 reversed $531 $-1 #
edge $-1 -1 $-1 $532 0 $445 6.199999999999999289 $345 $533 forward @7 unknown #
coedge $-1 -1 $-1 $534 $346 $530 $535 reversed $444 $-1 #
coedge $-1 -1 $-1 $346 $534 $348 $448 forward $444 $-1 #
loop $-1 -1 $-1 $-1 $534 $536 #
vertex $-1 -1 $-1 $535 $537 #
straight-curve $-1 -1 $-1 -30.99999999999997868 -61.00000000000001421 17 -3.640075490574282653e-15 10 0 I I #
coedge $-1 -1 $-1 $349 $348 $538 $539 reversed $350 $-1 #
edge $-1 -1 $-1 $540 0.2000000000000000111 $351 1.700000000000000178 $443 $541 forward @7 tangent #
edge $-1 -1 $-1 $542 -1.400000000000000133 $352 0.1000000000000000888 $349 $543 forward @7 unknown #
point $-1 -1 $-1 -31 -8.881784197001252323e-15 17 #
point $-1 -1 $-1 -11.5376278760144384 28.77295853739434861 17 #
point $-1 -1 $-1 32.00000000000002842 -61.99999999999999289 17 #
straight-curve $-1 -1 $-1 -11.90980942040342327 29.70111849020859296 17 9.281599528191730286 3.721815443875617468 0 I I #
point $-1 -1 $-1 -11.90980942040200219 29.70111849021352413 17 #
straight-curve $-1 -1 $-1 -32 0 17 0 0 -10 I I #
straight-curve $-1 -1 $-1 -31.99999999999996447 -62.00000000000002132 16.5 0 0 10 I I #
face $-1 -1 $-1 $544 $436 $5 $-1 $545 reversed single #
cone-surface $-1 -1 $-1 0 0 0 0 0 1 -10.76316945650539125 29.07153561906472916 0 1 I I 0 1 33 forward I I I I #
point $-1 -1 $-1 -31.99999999999996447 -62.00000000000002132 16 #
straight-curve $-1 -1 $-1 32.00000000000002842 -61.99999999999999289 16.5 0 0 10 I I #
coedge $-1 -1 $-1 $546 $547 $372 $462 reversed $548 $-1 #
edge $-1 -1 $-1 $466 0 $480 1.524870429617609879 $461 $549 forward @7 unknown #
coedge $-1 -1 $-1 $550 $373 $376 $469 reversed $465 $-1 #
coedge $-1 -1 $-1 $373 $550 $546 $551 forward $465 $-1 #
loop $-1 -1 $-1 $-1 $550 $552 #
vertex $-1 -1 $-1 $551 $553 #
ellipse-curve $-1 -1 $-1 0 0 16 0 0 1 33 0 0 1 I I #
coedge $-1 -1 $-1 $376 $375 $554 $555 forward $377 $-1 #
edge $-1 -1 $-1 $556 0 $378 1.600000000000000089 $376 $557 forward @7 tangent #
face $-1 -1 $-1 $382 $377 $5 $-1 $558 forward single #
point $-1 -1 $-1 32.99999999999999289 0 16 #
coedge $-1 -1 $-1 $395 $554 $380 $473 reversed $491 $-1 #
edge $-1 -1 $-1 $399 0 $474 6.600000000000000533 $380 $559 forward @7 unknown #
vertex $-1 -1 $-1 $473 $560 #
straight-curve $-1 -1 $-1 33.00000000000002842 -62.99999999999997158 0 0 0 10 I I #
plane-surface $-1 -1 $-1 -32.99999999999997868 -63.00000000000001421 0 6.728624391667615337e-16 -1 0 10 6.728624391667615731e-15 0 forward_v I I I I #
coedge $-1 -1 $-1 $561 $384 $547 $562 reversed $479 $-1 #
coedge $-1 -1 $-1 $384 $561 $386 $483 forward $479 $-1 #
loop $-1 -1 $-1 $-1 $561 $563 #
vertex $-1 -1 $-1 $562 $564 #
ellipse-curve $-1 -1 $-1 0 0 16 0 0 -1 4.412388445065852594 -14.33634640380348912 0 1 I I #
coedge $-1 -1 $-1 $387 $386 $565 $566 forward $388 $-1 #
edge $-1 -1 $-1 $567 0 $389 1.600000000000000089 $478 $568 forward @7 unknown #
face $-1 -1 $-1 $563 $388 $5 $-1 $569 forward single #
point $-1 -1 $-1 -4.412388445065853482 14.3363464038034909 16 #
coedge $-1 -1 $-1 $565 $395 $391 $487 reversed $491 $-1 #
edge $-1 -1 $-1 $488 0 $397 1.216213669850104706 $391 $570 forward @7 unknown #
vertex $-1 -1 $-1 $566 $571 #
straight-curve $-1 -1 $-1 -11.45756748595735175 30.94711856223020163 0 0 0 10 I I #
cone-surface $-1 -1 $-1 0 0 0 0 0 1 -11.45756748595735175 30.94711856223019808 0 1 I I 0 1 33 forward I I I I #
loop $-1 -1 $-1 $-1 $395 $401 #
straight-curve $-1 -1 $-1 -33 0 0 3.524517538492559757e-15 -10 0 F 0 F 6.300000000000001599 #
point $-1 -1 $-1 -33 0 0 #
point $-1 -1 $-1 -32.99999999999997868 -63.00000000000001421 0 #
plane-surface $-1 -1 $-1 5.004955402355999377e-15 -18.65539486847048423 0 0 0 1 10 0 0 forward_v I I I I #
ellipse-curve $-1 -1 $-1 -16.63083126363472886 18.95353287289066202 17 0 0 -1 11.28300439927744314 -4.263696775158844154 0 1 F -1.453610558540683773 F -0.08229579421074259549 #
coedge $-1 -1 $-1 $420 $572 $422 $513 reversed $411 $-1 #
coedge $-1 -1 $-1 $573 $413 $572 $574 forward $323 $-1 #
coedge $-1 -1 $-1 $413 $573 $414 $503 reversed $323 $-1 #
coedge $-1 -1 $-1 $416 $422 $413 $501 forward $423 $-1 #
edge $-1 -1 $-1 $575 -1.298372777090641472 $504 -0.3983727770906415611 $500 $576 forward @7 unknown #
coedge $-1 -1 $-1 $415 $414 $577 $578 reversed $232 $-1 #
edge $-1 -1 $-1 $504 0 $579 0.1999999999999999556 $499 $580 forward @7 unknown #
vertex $-1 -1 $-1 $417 $581 #
straight-curve $-1 -1 $-1 -16.96745554181277171 -36.52578338005127989 0 -9.251858538542975377e-15 10 0 I I #
coedge $-1 -1 $-1 $577 $582 $418 $507 forward $583 $-1 #
edge $-1 -1 $-1 $511 -1.748372777090639874 $508 -0.8483727770906397403 $506 $584 forward @7 unknown #
vertex $-1 -1 $-1 $507 $585 #
straight-curve $-1 -1 $-1 -16.96745554181276461 -42.39617189163205779 0 0 0 10 I I #
coedge $-1 -1 $-1 $572 $420 $582 $586 reversed $411 $-1 #
vertex $-1 -1 $-1 $507 $587 #
straight-curve $-1 -1 $-1 -25.96745554181276816 -42.3961718916320649 0 0 0 10 I I #
edge $-1 -1 $-1 $425 1.187038851158078057 $575 2.387038851158078234 $422 $588 forward @7 unknown #
point $-1 -1 $-1 -16.96745554181276461 -42.39617189163205779 0 #
point $-1 -1 $-1 -25.96745554181276816 -42.3961718916320649 0 #
coedge $-1 -1 $-1 $439 $431 $589 $590 forward $125 $-1 #
coedge $-1 -1 $-1 $591 $592 $431 $518 reversed $593 $-1 #
edge $-1 -1 $-1 $522 -1.442574635406867145 $594 -0.07125987107692655087 $431 $595 forward @7 unknown #
coedge $-1 -1 $-1 $596 $432 $435 $525 reversed $521 $-1 #
coedge $-1 -1 $-1 $432 $596 $591 $597 forward $521 $-1 #
loop $-1 -1 $-1 $-1 $596 $544 #
vertex $-1 -1 $-1 $433 $598 #
ellipse-curve $-1 -1 $-1 0 0 17 0 0 1 5.000706904407969056 -16.2478592576439631 0 1 F -3.079653360463340483 F 2.482501943593511395 #
coedge $-1 -1 $-1 $435 $434 $599 $600 reversed $436 $-1 #
edge $-1 -1 $-1 $601 -1.400000000000000133 $437 0.1000000000000000888 $435 $602 forward @7 unknown #
point $-1 -1 $-1 -5.996854972671137318 15.90715972248815646 17 #
coedge $-1 -1 $-1 $603 $604 $439 $528 reversed $605 $-1 #
edge $-1 -1 $-1 $606 0 $532 6.099999999999996092 $439 $607 forward @7 unknown #
coedge $-1 -1 $-1 $608 $440 $604 $609 reversed $531 $-1 #
coedge $-1 -1 $-1 $440 $608 $442 $535 forward $531 $-1 #
loop $-1 -1 $-1 $-1 $608 $610 #
vertex $-1 -1 $-1 $528 $611 #
straight-curve $-1 -1 $-1 31.00000000000001776 -60.99999999999997868 17 -10 -5.730183352904033401e-15 0 I I #
coedge $-1 -1 $-1 $443 $442 $612 $613 reversed $444 $-1 #
edge $-1 -1 $-1 $614 -1.400000000000000133 $445 0.1000000000000000056 $530 $615 forward @7 unknown #
face $-1 -1 $-1 $616 $444 $5 $-1 $617 reversed single #
point $-1 -1 $-1 -30.99999999999997868 -61.00000000000001421 17 #
coedge $-1 -1 $-1 $612 $599 $447 $539 forward $618 $-1 #
edge $-1 -1 $-1 $542 0.02677565636985160952 $540 1.216213669850104706 $447 $619 reversed @7 unknown #
vertex $-1 -1 $-1 $613 $620 #
straight-curve $-1 -1 $-1 -31 7.0490350769851205e-16 0 0 0 10 I I #
vertex $-1 -1 $-1 $600 $621 #
straight-curve $-1 -1 $-1 -11.53762787601393569 28.77295853739312292 16 0 0 10 I I #
face $-1 -1 $-1 $622 $521 $5 $-1 $623 reversed single #
cone-surface $-1 -1 $-1 -16.63083126363472886 18.95353287289066202 0 0 0 1 10.34756597998600824 -3.910207081230515413 0 1 I I 0 1 13.06172866817248845 forward I I I I #
coedge $-1 -1 $-1 $624 $461 $464 $551 reversed $548 $-1 #
coedge $-1 -1 $-1 $461 $624 $477 $562 forward $548 $-1 #
loop $-1 -1 $-1 $-1 $624 $625 #
ellipse-curve $-1 -1 $-1 16.63083126363469688 18.95353287289067623 16 0 0 1 -5.173263777677387765 11.99358568933953428 0 1 I I #
coedge $-1 -1 $-1 $464 $463 $626 $627 forward $465 $-1 #
edge $-1 -1 $-1 $628 0 $466 1.600000000000000089 $464 $629 forward @7 unknown #
face $-1 -1 $-1 $470 $465 $5 $-1 $630 forward single #
point $-1 -1 $-1 11.45756748595731267 30.94711856223021229 16 #
coedge $-1 -1 $-1 $472 $626 $468 $555 reversed $491 $-1 #
edge $-1 -1 $-1 $474 0 $556 6.299999999999997158 $468 $631 forward @7 unknown #
vertex $-1 -1 $-1 $555 $632 #
straight-curve $-1 -1 $-1 33 0 0 0 0 10 I I #
plane-surface $-1 -1 $-1 33.00000000000002842 -62.99999999999997158 0 1 4.229421046191074272e-16 0 -4.229421046191074075e-15 10 0 forward_v I I I I #
straight-curve $-1 -1 $-1 -32.99999999999997868 -63.00000000000001421 0 10 6.728624391667615731e-15 0 F 0 F 6.600000000000000533 #
point $-1 -1 $-1 33.00000000000002842 -62.99999999999997158 0 #
coedge $-1 -1 $-1 $478 $477 $633 $634 forward $479 $-1 #
edge $-1 -1 $-1 $635 0 $480 1.600000000000000089 $547 $636 forward @7 unknown #
face $-1 -1 $-1 $625 $479 $5 $-1 $637 forward single #
point $-1 -1 $-1 4.412388445065826836 14.33634640380349445 16 #
coedge $-1 -1 $-1 $633 $486 $482 $566 reversed $491 $-1 #
edge $-1 -1 $-1 $567 0 $488 1.524870429617610323 $482 $638 forward @7 unknown #
vertex $-1 -1 $-1 $634 $639 #
straight-curve $-1 -1 $-1 -4.412388445065852594 14.3363464038034909 0 0 0 10 I I #
cone-surface $-1 -1 $-1 -16.63083126363472886 18.95353287289066202 0 0 0 1 12.21844281856887449 -4.617186469087172895 0 1 I I 0 1 13.06172866817248845 forward I I I I #
ellipse-curve $-1 -1 $-1 0 0 0 0 0 1 -11.45756748595735175 30.94711856223019808 0 1 F 0 F 1.216213669850104706 #
point $-1 -1 $-1 -11.45756748595735175 30.94711856223020163 0 #
coedge $-1 -1 $-1 $497 $510 $498 $574 reversed $411 $-1 #
coedge $-1 -1 $-1 $499 $498 $640 $641 reversed $323 $-1 #
edge $-1 -1 $-1 $575 0 $642 0.1999999999999999556 $572 $643 forward @7 unknown #
vertex $-1 -1 $-1 $501 $644 #
straight-curve $-1 -1 $-1 -12.98372777090633967 -54.39617189163204358 0 10 1.97372982155583378e-14 0 I I #
coedge $-1 -1 $-1 $640 $506 $502 $578 forward $583 $-1 #
edge $-1 -1 $-1 $508 0.5870388511580779678 $579 1.787038851158077257 $577 $645 forward @7 unknown #
vertex $-1 -1 $-1 $578 $646 #
straight-curve $-1 -1 $-1 -16.96745554181275395 -54.39617189163205069 0 0 0 10 I I #
point $-1 -1 $-1 -16.96745554181275395 -54.39617189163205069 0 #
coedge $-1 -1 $-1 $506 $640 $510 $586 forward $583 $-1 #
loop $-1 -1 $-1 $618 $506 $616 #
straight-curve $-1 -1 $-1 -8.483727770906368093 -42.39617189163205069 1.999999999999999556 10 9.86864910777916732e-15 0 I I #
point $-1 -1 $-1 -16.96745554181276461 -42.39617189163205779 1.999999999999999556 #
edge $-1 -1 $-1 $642 -2.387038851158078234 $511 -1.187038851158078057 $582 $647 forward @7 unknown #
point $-1 -1 $-1 -25.96745554181276816 -42.3961718916320649 1.999999999999999556 #
straight-curve $-1 -1 $-1 -25.96745554181278237 -30.525783380051287 0 1.11022302462515654e-14 -10 0 I I #
coedge $-1 -1 $-1 $648 $649 $516 $590 reversed $650 $-1 #
edge $-1 -1 $-1 $594 -1.189438013480254241 $606 -5.720835612245967747e-16 $516 $651 forward @7 unknown #
coedge $-1 -1 $-1 $652 $517 $520 $597 reversed $593 $-1 #
coedge $-1 -1 $-1 $517 $652 $648 $653 forward $593 $-1 #
loop $-1 -1 $-1 $-1 $652 $622 #
vertex $-1 -1 $-1 $518 $654 #
ellipse-curve $-1 -1 $-1 16.63083126363469688 18.95353287289067623 17 0 0 -1 -4.381138338678937316 10.15713876963520512 0 1 F -1.442574635406867145 F -0.07125987107692655087 #
coedge $-1 -1 $-1 $520 $519 $655 $656 reversed $521 $-1 #
edge $-1 -1 $-1 $657 -1.400000000000000133 $522 0.1000000000000000888 $520 $658 forward @7 unknown #
point $-1 -1 $-1 5.996854972671120443 15.90715972248816357 17 #
coedge $-1 -1 $-1 $538 $655 $524 $600 forward $618 $-1 #
edge $-1 -1 $-1 $601 0.08229579421074184609 $542 1.453610558540683995 $524 $659 reversed @7 unknown #
vertex $-1 -1 $-1 $656 $660 #
straight-curve $-1 -1 $-1 -5.996854972675160766 15.90715972248929688 16 0 0 10 I I #
coedge $-1 -1 $-1 $661 $527 $649 $662 reversed $605 $-1 #
coedge $-1 -1 $-1 $527 $661 $529 $609 forward $605 $-1 #
loop $-1 -1 $-1 $-1 $661 $663 #
vertex $-1 -1 $-1 $590 $664 #
straight-curve $-1 -1 $-1 31 2.220446049250313081e-15 17 4.368090588689142181e-15 -10 0 I I #
coedge $-1 -1 $-1 $530 $529 $665 $666 reversed $531 $-1 #
edge $-1 -1 $-1 $667 -1.400000000000000133 $532 0.1000000000000000888 $604 $668 forward @7 unknown #
face $-1 -1 $-1 $536 $531 $5 $-1 $669 reversed single #
point $-1 -1 $-1 31.00000000000002842 -60.99999999999995737 17 #
coedge $-1 -1 $-1 $665 $538 $534 $613 forward $618 $-1 #
edge $-1 -1 $-1 $540 -0.9327697434235248108 $614 5.167230256576476499 $534 $670 reversed @7 unknown #
vertex $-1 -1 $-1 $613 $671 #
straight-curve $-1 -1 $-1 -30.99999999999997868 -61.00000000000001421 16 0 0 10 I I #
face $-1 -1 $-1 $65 $583 $5 $-1 $672 forward single #
plane-surface $-1 -1 $-1 -31 7.0490350769851205e-16 0 -1 -3.524517538492559757e-16 0 3.524517538492559757e-15 -10 0 forward_v I I I I #
loop $-1 -1 $-1 $-1 $612 $616 #
ellipse-curve $-1 -1 $-1 0 0 2 -0 -0 -1 -10.76316945650539125 29.07153561906472916 0 1 I I #
point $-1 -1 $-1 -31 3.52451753849256025e-16 2 #
point $-1 -1 $-1 -11.53762787601393924 28.77295853739312648 2 #
face $-1 -1 $-1 $673 $593 $5 $-1 $674 reversed single #
cone-surface $-1 -1 $-1 0 0 0 0 0 1 5.000706904407966391 -16.24785925764395245 0 1 I I 0 -1 14.99999999999999645 forward I I I I #
coedge $-1 -1 $-1 $547 $546 $675 $676 forward $548 $-1 #
face $-1 -1 $-1 $552 $548 $5 $-1 $677 forward single #
coedge $-1 -1 $-1 $554 $675 $550 $627 reversed $491 $-1 #
edge $-1 -1 $-1 $556 0 $628 1.216213669850106038 $550 $678 forward @7 unknown #
vertex $-1 -1 $-1 $627 $679 #
straight-curve $-1 -1 $-1 11.45756748595730912 30.94711856223021229 0 0 0 10 I I #
cone-surface $-1 -1 $-1 0 0 0 0 0 1 33 0 0 1 I I 0 1 33 forward I I I I #
straight-curve $-1 -1 $-1 33.00000000000002842 -62.99999999999997158 0 -4.229421046191074075e-15 10 0 F 0 F 6.299999999999997158 #
point $-1 -1 $-1 33 0 0 #
coedge $-1 -1 $-1 $675 $565 $561 $634 reversed $491 $-1 #
edge $-1 -1 $-1 $635 -2.544441236719964916 $567 3.141592653589793116 $561 $680 forward @7 unknown #
vertex $-1 -1 $-1 $676 $681 #
straight-curve $-1 -1 $-1 4.412388445065824172 14.33634640380349445 0 0 0 10 I I #
cone-surface $-1 -1 $-1 0 0 0 0 0 1 4.412388445065852594 -14.33634640380348912 0 1 I I 0 -1 14.99999999999999645 forward I I I I #
ellipse-curve $-1 -1 $-1 -16.63083126363472886 18.95353287289066202 0 0 0 1 12.21844281856887449 -4.617186469087172895 0 1 F 0 F 1.524870429617610545 #
point $-1 -1 $-1 -4.412388445065852594 14.3363464038034909 0 #
coedge $-1 -1 $-1 $582 $577 $573 $641 forward $583 $-1 #
edge $-1 -1 $-1 $579 0.3983727770906415611 $642 1.298372777090641472 $640 $682 forward @7 unknown #
vertex $-1 -1 $-1 $641 $683 #
straight-curve $-1 -1 $-1 -25.96745554181275395 -54.396171891632072 0 0 0 10 I I #
point $-1 -1 $-1 -25.96745554181275395 -54.396171891632072 0 #
straight-curve $-1 -1 $-1 -16.96745554181277171 -36.52578338005127989 1.999999999999999556 9.251858538542975377e-15 -10 0 I I #
point $-1 -1 $-1 -16.96745554181275395 -54.39617189163205069 1.999999999999999556 #
straight-curve $-1 -1 $-1 -25.96745554181278237 -30.525783380051287 1.999999999999999556 -1.11022302462515654e-14 10 0 I I #
coedge $-1 -1 $-1 $684 $589 $592 $653 reversed $650 $-1 #
coedge $-1 -1 $-1 $589 $684 $603 $662 forward $650 $-1 #
loop $-1 -1 $-1 $-1 $684 $673 #
ellipse-curve $-1 -1 $-1 0 0 17 0 0 -1 31.00000000000000711 0 0 1 F -1.189438013480254241 F -5.720835612245967747e-16 #
coedge $-1 -1 $-1 $592 $591 $685 $686 reversed $593 $-1 #
edge $-1 -1 $-1 $687 -1.400000000000000133 $594 0.1000000000000000888 $592 $688 forward @7 unknown #
point $-1 -1 $-1 11.53762787601582218 28.772958537389421 17 #
coedge $-1 -1 $-1 $599 $685 $596 $656 forward $618 $-1 #
edge $-1 -1 $-1 $657 -2.482501943593512284 $601 3.079653360463340483 $596 $689 reversed @7 unknown #
vertex $-1 -1 $-1 $686 $690 #
straight-curve $-1 -1 $-1 5.996854972671111561 15.907159722488176 16 0 0 10 I I #
ellipse-curve $-1 -1 $-1 -16.63083126363472886 18.95353287289066202 2 -0 -0 -1 10.34756597998600824 -3.910207081230515413 0 1 I I #
point $-1 -1 $-1 -5.996854972671139095 15.9071597224881458 2 #
coedge $-1 -1 $-1 $604 $603 $691 $692 reversed $605 $-1 #
edge $-1 -1 $-1 $693 -1.400000000000000133 $606 0.1000000000000000888 $649 $694 forward @7 tangent #
face $-1 -1 $-1 $610 $605 $5 $-1 $695 reversed single #
point $-1 -1 $-1 31.00000000000000711 1.773459039796250248e-14 17 #
coedge $-1 -1 $-1 $691 $612 $608 $666 forward $618 $-1 #
edge $-1 -1 $-1 $614 -1.4500000000000004 $667 4.75 $608 $696 reversed @7 unknown #
vertex $-1 -1 $-1 $666 $697 #
straight-curve $-1 -1 $-1 31.00000000000002842 -60.99999999999997868 16 0 0 10 I I #
plane-surface $-1 -1 $-1 -32.99999999999997868 -61.00000000000001421 0 6.728624391667615337e-16 -1 0 10 6.728624391667615731e-15 0 forward_v I I I I #
straight-curve $-1 -1 $-1 -30.99999999999999645 -9.327697434235247442 2 -3.524517538492559757e-15 10 0 F -9999.067231256576633 F 10000.93277074342404 #
point $-1 -1 $-1 -30.99999999999997868 -61.00000000000001421 2 #
plane-surface $-1 -1 $-1 5.004955402355999377e-15 -18.65539486847048423 2 0 0 1 10 0 0 forward_v I I I I #
face $-1 -1 $-1 $663 $650 $5 $-1 $698 reversed single #
cone-surface $-1 -1 $-1 16.63083126363469688 18.95353287289067623 0 0 0 1 -4.381138338678938204 10.1571387696352069 0 1 I I 0 1 13.06172866817248845 forward I I I I #
coedge $-1 -1 $-1 $626 $633 $624 $676 reversed $491 $-1 #
edge $-1 -1 $-1 $628 0 $635 1.524870429617609879 $624 $699 forward @7 unknown #
cone-surface $-1 -1 $-1 16.63083126363469688 18.95353287289067623 0 0 0 1 -5.173263777677387765 11.99358568933953428 0 1 I I 0 1 13.06172866817248845 forward I I I I #
ellipse-curve $-1 -1 $-1 0 0 0 0 0 1 33 0 0 1 F 0 F 1.216213669850106038 #
point $-1 -1 $-1 11.45756748595730912 30.94711856223021229 0 #
ellipse-curve $-1 -1 $-1 0 0 0 0 0 -1 4.412388445065852594 -14.33634640380348912 0 1 F -2.544441236719965804 F 3.141592653589793116 #
point $-1 -1 $-1 4.412388445065824172 14.33634640380349445 0 #
straight-curve $-1 -1 $-1 -12.98372777090633967 -54.39617189163204358 1.999999999999999556 -10 -1.97372982155583378e-14 0 I I #
point $-1 -1 $-1 -25.96745554181275395 -54.396171891632072 1.999999999999999556 #
coedge $-1 -1 $-1 $649 $648 $700 $701 reversed $650 $-1 #
coedge $-1 -1 $-1 $655 $700 $652 $686 forward $618 $-1 #
edge $-1 -1 $-1 $687 0.07125987107692506595 $657 1.442574635406866923 $652 $702 reversed @7 unknown #
vertex $-1 -1 $-1 $701 $703 #
straight-curve $-1 -1 $-1 11.53762787601390905 28.77295853739314069 16 0 0 10 I I #
ellipse-curve $-1 -1 $-1 0 0 2 0 0 1 5.000706904407966391 -16.24785925764395245 0 1 I I #
point $-1 -1 $-1 5.996854972671106232 15.90715972248816357 2 #
coedge $-1 -1 $-1 $700 $665 $661 $692 forward $618 $-1 #
edge $-1 -1 $-1 $667 -2.017230256576476144 $693 4.082769743423521724 $661 $704 reversed @7 unknown #
vertex $-1 -1 $-1 $692 $705 #
straight-curve $-1 -1 $-1 31.00000000000132161 4.440892098500608807e-15 16 0 0 10 I I #
plane-surface $-1 -1 $-1 31.00000000000002132 -62.99999999999997158 0 1 4.229421046191074272e-16 0 -4.229421046191074075e-15 10 0 forward_v I I I I #
straight-curve $-1 -1 $-1 -16.49999999999997513 -61.00000000000000711 2 -10 -6.728624391667615731e-15 0 F -10001.65000099999997 F 9998.350001000000702 #
point $-1 -1 $-1 31.00000000000002132 -60.99999999999997868 2 #
cone-surface $-1 -1 $-1 0 0 0 0 0 1 31 0 0 1 I I 0 1 33 forward I I I I #
ellipse-curve $-1 -1 $-1 16.63083126363469688 18.95353287289067623 0 0 0 1 -5.173263777677387765 11.99358568933953428 0 1 F 0 F 1.524870429617609879 #
coedge $-1 -1 $-1 $685 $691 $684 $701 forward $618 $-1 #
edge $-1 -1 $-1 $693 -0 $687 1.189438013480254241 $684 $706 reversed @7 unknown #
ellipse-curve $-1 -1 $-1 16.63083126363469688 18.95353287289067623 2 -0 -0 -1 -4.381138338678938204 10.1571387696352069 0 1 I I #
point $-1 -1 $-1 11.53762787601390727 28.77295853739314424 2 #
straight-curve $-1 -1 $-1 31.00000000000001421 -40.82769743423521902 2 4.229421046191074075e-15 -10 0 F -10004.08277074342368 F 9995.917231256576997 #
point $-1 -1 $-1 30.99999999999999645 -4.229421046191074765e-16 2 #
ellipse-curve $-1 -1 $-1 0 0 2 -0 -0 -1 31 0 0 1 I I #
End-of-ACIS-data 