G75*
%MOIN*%
%OFA0B0*%
%FSLAX24Y24*%
%IPPOS*%
%LPD*%
%AMOC8*
5,1,8,0,0,1.08239X$1,22.5*
%
%ADD10C,0.0060*%
%ADD11C,0.0051*%
%ADD12C,0.0440*%
%ADD13C,0.0630*%
%ADD14OC8,0.0630*%
%ADD15OC8,0.0520*%
%ADD16OC8,0.0825*%
%ADD17C,0.0600*%
%ADD18C,0.0700*%
%ADD19C,0.0197*%
%ADD20C,0.0160*%
%ADD21C,0.0436*%
%ADD22R,0.0396X0.0396*%
D10*
X011197Y001256D02*
X011197Y001683D01*
X011304Y001790D01*
X011517Y001790D01*
X011624Y001683D01*
X011624Y001577D01*
X011517Y001470D01*
X011197Y001470D01*
X011197Y001256D02*
X011304Y001149D01*
X011517Y001149D01*
X011624Y001256D01*
X011841Y001256D02*
X011948Y001149D01*
X012162Y001149D01*
X012269Y001256D01*
X012269Y001470D02*
X012055Y001577D01*
X011948Y001577D01*
X011841Y001470D01*
X011841Y001256D01*
X012269Y001470D02*
X012269Y001790D01*
X011841Y001790D01*
X022110Y013360D02*
X021897Y013573D01*
X022110Y013787D01*
X022537Y013787D01*
X022217Y014004D02*
X022003Y014004D01*
X021897Y014111D01*
X021897Y014431D01*
X022003Y014649D02*
X021897Y014756D01*
X021897Y015076D01*
X022324Y015076D02*
X022324Y014756D01*
X022217Y014649D01*
X022003Y014649D01*
X022324Y014431D02*
X022324Y014111D01*
X022217Y014004D01*
X022110Y013360D02*
X022537Y013360D01*
X021023Y019484D02*
X021130Y019591D01*
X021130Y019805D01*
X021023Y019911D01*
X020916Y019911D01*
X020810Y019805D01*
X020703Y019911D01*
X020596Y019911D01*
X020489Y019805D01*
X020489Y019591D01*
X020596Y019484D01*
X020810Y019698D02*
X020810Y019805D01*
X021023Y020129D02*
X020596Y020129D01*
X021023Y020556D01*
X020596Y020556D01*
X020489Y020449D01*
X020489Y020236D01*
X020596Y020129D01*
X021023Y020129D02*
X021130Y020236D01*
X021130Y020449D01*
X021023Y020556D01*
X035873Y015076D02*
X035873Y014756D01*
X035980Y014649D01*
X036193Y014649D01*
X036300Y014756D01*
X036300Y015076D01*
X036300Y014431D02*
X036300Y014111D01*
X036193Y014004D01*
X035980Y014004D01*
X035873Y014111D01*
X035873Y014431D01*
X036086Y013787D02*
X036513Y013787D01*
X036086Y013787D02*
X035873Y013573D01*
X036086Y013360D01*
X036513Y013360D01*
X040901Y023596D02*
X040794Y023703D01*
X040794Y023916D01*
X040901Y024023D01*
X041114Y024023D01*
X041114Y023809D01*
X041328Y023596D02*
X040901Y023596D01*
X041328Y023596D02*
X041435Y023703D01*
X041435Y023916D01*
X041328Y024023D01*
X041221Y024241D02*
X041221Y024561D01*
X041114Y024668D01*
X040794Y024668D01*
X040901Y024885D02*
X040794Y024992D01*
X040794Y025312D01*
X041435Y025312D01*
X041221Y025312D02*
X041221Y024992D01*
X041114Y024885D01*
X040901Y024885D01*
X040794Y024241D02*
X041221Y024241D01*
X043156Y024203D02*
X043370Y024417D01*
X043797Y024417D01*
X043477Y024634D02*
X043583Y024741D01*
X043583Y025061D01*
X043477Y025279D02*
X043263Y025279D01*
X043156Y025386D01*
X043156Y025706D01*
X043583Y025706D02*
X043583Y025386D01*
X043477Y025279D01*
X043156Y025061D02*
X043156Y024741D01*
X043263Y024634D01*
X043477Y024634D01*
X043156Y024203D02*
X043370Y023990D01*
X043797Y023990D01*
X018297Y033556D02*
X017870Y033556D01*
X017652Y033343D02*
X017546Y033236D01*
X017332Y033236D01*
X017225Y033343D01*
X017225Y033450D01*
X017332Y033556D01*
X017439Y033556D01*
X017332Y033556D02*
X017225Y033663D01*
X017225Y033770D01*
X017332Y033877D01*
X017546Y033877D01*
X017652Y033770D01*
X017977Y033877D02*
X017977Y033236D01*
X018297Y033556D02*
X017977Y033877D01*
X017008Y033343D02*
X016901Y033343D01*
X016901Y033236D01*
X017008Y033236D01*
X017008Y033343D01*
X016686Y033343D02*
X016579Y033236D01*
X016365Y033236D01*
X016259Y033343D01*
X016259Y033556D01*
X016365Y033663D01*
X016472Y033663D01*
X016686Y033556D01*
X016686Y033877D01*
X016259Y033877D01*
D11*
X000126Y001090D02*
X000126Y000126D01*
X000126Y000893D02*
X001149Y000791D01*
X001149Y000768D02*
X000126Y000893D01*
X001149Y000996D01*
X001149Y001019D02*
X001149Y000768D01*
X001149Y000842D02*
X000126Y000893D01*
X001149Y000944D01*
X001149Y001019D02*
X000126Y000893D01*
X023354Y000893D01*
X022330Y000791D01*
X022330Y000768D02*
X023354Y000893D01*
X022330Y000996D01*
X022330Y001019D02*
X022330Y000768D01*
X022330Y000842D02*
X023354Y000893D01*
X022330Y000944D01*
X022330Y001019D02*
X023354Y000893D01*
X023354Y001090D02*
X023354Y000126D01*
X021385Y014279D02*
X021488Y015303D01*
X021511Y015303D02*
X021385Y014279D01*
X021283Y015303D01*
X021260Y015303D02*
X021511Y015303D01*
X021437Y015303D02*
X021385Y014279D01*
X021334Y015303D01*
X021260Y015303D02*
X021385Y014279D01*
X021385Y026090D01*
X021488Y025067D01*
X021511Y025067D02*
X021385Y026090D01*
X021283Y025067D01*
X021260Y025067D02*
X021511Y025067D01*
X021437Y025067D02*
X021385Y026090D01*
X021334Y025067D01*
X021260Y025067D02*
X021385Y026090D01*
X020618Y026090D02*
X047960Y026090D01*
X047960Y014279D02*
X020618Y014279D01*
X024889Y032854D02*
X025913Y032980D01*
X024889Y032878D01*
X024889Y032854D02*
X024889Y033106D01*
X025913Y032980D01*
X024889Y033082D01*
X024889Y033031D02*
X025913Y032980D01*
X024889Y032929D01*
X025913Y032980D02*
X008787Y032980D01*
X009811Y032878D01*
X009811Y032854D02*
X009811Y033106D01*
X008787Y032980D01*
X009811Y033082D01*
X009811Y033031D02*
X008787Y032980D01*
X009811Y032929D01*
X009811Y032854D02*
X008787Y032980D01*
X008787Y032980D01*
X025913Y032980D02*
X025913Y032980D01*
D12*
X033141Y021287D03*
X034141Y021287D03*
X035141Y021287D03*
D13*
X039996Y022941D03*
D14*
X038996Y022941D03*
X037724Y021578D03*
X035181Y023531D03*
X033181Y023531D03*
X029275Y023728D03*
X027275Y023728D03*
X037724Y019578D03*
X038905Y019610D03*
X040086Y019610D03*
X040086Y017610D03*
X038905Y017610D03*
D15*
X037346Y016641D03*
X039047Y016248D03*
X041047Y016248D03*
X035346Y016641D03*
D16*
X043574Y016641D03*
X045574Y016641D03*
D17*
X034169Y015367D02*
X034169Y014767D01*
X033169Y014767D02*
X033169Y015367D01*
X032169Y015367D02*
X032169Y014767D01*
X031169Y014767D02*
X031169Y015367D01*
X030169Y015367D02*
X030169Y014767D01*
X029169Y014767D02*
X029169Y015367D01*
X028169Y015367D02*
X028169Y014767D01*
X027169Y014767D02*
X027169Y015367D01*
X026169Y015367D02*
X026169Y014767D01*
X025169Y014767D02*
X025169Y015367D01*
X024169Y015367D02*
X024169Y014767D01*
X023169Y014767D02*
X023169Y015367D01*
D18*
X037448Y014830D03*
D19*
X037448Y014752D02*
X037291Y014909D01*
X037448Y014752D02*
X045401Y014752D01*
X047055Y016405D01*
X047055Y022586D01*
X045362Y024279D01*
X042881Y024279D01*
X042881Y024358D02*
X042960Y024358D01*
X042960Y024319D01*
X041504Y022862D01*
X040952Y022862D01*
X040952Y021563D01*
X041031Y021484D01*
X040834Y020972D02*
X039338Y020972D01*
X039299Y020933D01*
X039299Y020972D01*
X038630Y021641D01*
X038630Y021444D01*
X038669Y021405D01*
X037763Y021405D01*
X037724Y021444D01*
X037685Y021523D02*
X037685Y021563D01*
X037724Y021602D02*
X038511Y021602D01*
X039299Y020815D01*
X040913Y020815D01*
X040992Y020893D01*
X040952Y020854D02*
X040874Y020933D01*
X040952Y020854D02*
X040952Y020736D01*
X040756Y020263D02*
X040834Y020185D01*
X040756Y020263D02*
X036543Y020263D01*
X036346Y020185D02*
X036346Y020145D01*
X041031Y020145D01*
X040992Y018846D02*
X040834Y018689D01*
X036346Y018689D01*
X036464Y018807D01*
X036464Y018925D01*
X036582Y018807D01*
X036622Y018807D01*
X036464Y018964D01*
X036464Y021326D01*
X036464Y021405D01*
X036425Y021444D01*
X036425Y024240D01*
X040716Y024240D01*
X040677Y024200D01*
X036543Y024200D01*
X036464Y024122D01*
X036464Y021405D01*
X036425Y021366D02*
X036464Y021326D01*
X036425Y021366D02*
X035165Y021366D01*
X035165Y021248D01*
X036385Y021248D01*
X036385Y021405D01*
X035165Y021366D02*
X035165Y022626D01*
X035126Y022153D02*
X035204Y022074D01*
X035126Y022153D02*
X035126Y023531D01*
X036346Y022941D02*
X039023Y022941D01*
X040677Y024319D02*
X036858Y024319D01*
X037015Y024319D02*
X037015Y024279D01*
X037015Y024319D02*
X036346Y024319D01*
X036346Y022941D01*
X036346Y018807D01*
X036582Y018807D01*
X036622Y018807D02*
X041031Y018807D01*
X041307Y018767D02*
X041307Y018846D01*
X041346Y018846D01*
X040126Y017626D02*
X044338Y017626D01*
X044456Y017507D01*
X044496Y017507D01*
X045480Y016523D01*
X045559Y016602D02*
X044456Y015500D01*
X035519Y015500D01*
X033669Y017350D01*
X033669Y017389D01*
X033669Y017350D02*
X033630Y017311D01*
X033669Y017350D02*
X033669Y018846D01*
X032645Y019870D01*
X030795Y019870D01*
X030795Y020893D01*
X030834Y020618D02*
X030834Y022153D01*
X031307Y022153D02*
X031307Y020618D01*
X031779Y020578D02*
X031779Y021996D01*
X031779Y022153D01*
X031819Y022193D01*
X033196Y023570D01*
X033196Y022586D02*
X034889Y024358D01*
X034771Y024358D02*
X034732Y024319D01*
X031228Y024319D01*
X030322Y023334D01*
X030322Y020578D01*
X030834Y019948D02*
X030795Y019909D01*
X027724Y019909D01*
X027763Y019948D01*
X028236Y019870D02*
X028236Y020775D01*
X028157Y020854D01*
X028196Y020578D02*
X028196Y022074D01*
X027724Y022074D02*
X027724Y023098D01*
X028905Y024358D01*
X029259Y023689D02*
X029299Y023649D01*
X029299Y021956D01*
X029259Y022114D02*
X029259Y020578D01*
X028748Y020539D02*
X028748Y022114D01*
X027724Y022074D02*
X027685Y022114D01*
X027724Y022074D02*
X027724Y020618D01*
X028236Y019870D02*
X030795Y019870D01*
X030795Y018570D02*
X030795Y017468D01*
X032173Y016090D01*
X032173Y015027D01*
X033157Y015027D02*
X033157Y015933D01*
X031267Y017822D01*
X031267Y018649D01*
X031819Y018610D02*
X031819Y018256D01*
X034141Y015933D01*
X034141Y014988D01*
X034181Y014948D01*
X037370Y016641D02*
X038039Y016641D01*
X038472Y016208D01*
X039141Y016208D01*
X039181Y016248D01*
X039771Y016917D02*
X041031Y016917D01*
X041070Y016878D01*
X041031Y016287D01*
X041070Y016248D01*
X041031Y016248D02*
X042015Y016248D01*
X042448Y016681D01*
X043590Y016681D01*
X043630Y016641D01*
X039771Y016917D02*
X039063Y017626D01*
X038905Y017626D01*
X037567Y016641D02*
X037448Y016641D01*
X037567Y016641D02*
X037567Y018767D01*
X033590Y018964D02*
X033590Y017232D01*
X031189Y016011D02*
X031189Y015027D01*
X030165Y015027D02*
X030165Y016011D01*
X029220Y016956D01*
X029220Y018570D01*
X028708Y018531D02*
X028708Y016366D01*
X029141Y015933D01*
X029141Y015067D01*
X029181Y015027D01*
X028236Y015145D02*
X028157Y015067D01*
X028236Y015145D02*
X028236Y018570D01*
X027763Y018531D02*
X027763Y016523D01*
X027173Y015933D01*
X027173Y015067D01*
X026189Y015067D02*
X026149Y015106D01*
X026149Y015933D01*
X026700Y016484D01*
X026700Y018570D01*
X026189Y018531D02*
X026189Y016917D01*
X025165Y015893D01*
X025165Y015106D01*
X025126Y015067D01*
X025204Y015381D02*
X025165Y015421D01*
X024141Y015067D02*
X024141Y015854D01*
X025677Y017389D01*
X025677Y018570D01*
X025204Y018610D02*
X025204Y017862D01*
X023236Y015893D01*
X023236Y015854D01*
X023157Y015775D01*
X023157Y014988D01*
X030283Y016917D02*
X031189Y016011D01*
X030283Y016917D02*
X030283Y018610D01*
X028236Y019870D02*
X025716Y019870D01*
X025716Y020972D01*
X025677Y020696D02*
X025677Y022074D01*
X026189Y022114D02*
X026189Y020657D01*
X026661Y020578D02*
X026661Y022035D01*
X026622Y022074D01*
X026700Y021996D02*
X026700Y023216D01*
X027252Y023767D01*
X026464Y024319D02*
X031228Y024319D01*
X033196Y022586D02*
X033196Y021287D01*
X026464Y024319D02*
X025165Y022941D01*
X025165Y020736D01*
D20*
X033590Y017232D02*
X035362Y015460D01*
X044378Y015460D01*
X045559Y016641D01*
X045362Y016641D01*
X044378Y017626D01*
X042803Y017626D01*
X041070Y018807D02*
X041031Y018807D01*
X040874Y018807D01*
X040874Y019594D02*
X040086Y019594D01*
X040874Y020185D02*
X041070Y020185D01*
X041070Y020972D02*
X040874Y020972D01*
X040874Y021563D02*
X040874Y022941D01*
X041070Y022941D01*
X041070Y021563D01*
X041070Y022941D02*
X041464Y022941D01*
X042842Y024319D01*
X043039Y024319D01*
X040874Y022941D02*
X039889Y022941D01*
X038905Y019594D02*
X037724Y019594D01*
X037448Y016641D02*
X037370Y016641D01*
X037330Y016641D01*
X035362Y016641D02*
X034378Y016641D01*
D21*
X040874Y018807D03*
X040874Y019594D03*
X040874Y020185D03*
X040874Y020972D03*
X040874Y021563D03*
D22*
X040677Y024319D03*
X042842Y024319D03*
X031346Y022232D03*
X030834Y022232D03*
X028748Y022193D03*
X028196Y022193D03*
X026189Y022193D03*
X025677Y022193D03*
M02*
