%
M48
M72
T01C0.0236
T02C0.0240
T03C0.0276
T04C0.0320
T05C0.0400
T06C0.0550
%
T01
X25677Y22193
X26189Y22193
X28196Y22193
X28748Y22193
X30834Y22232
X31346Y22232
X40677Y24319
X42842Y24319
T02
X35141Y21287
X34141Y21287
X33141Y21287
T03
X40874Y21563
X40874Y20972
X40874Y20185
X40874Y19594
X40874Y18807
T04
X40086Y19610
X38905Y19610
X37724Y19578
X37724Y21578
X38996Y22941
X39996Y22941
X35181Y23531
X33181Y23531
X29275Y23728
X27275Y23728
X35346Y16641
X37346Y16641
X38905Y17610
X40086Y17610
X41047Y16248
X39047Y16248
T05
X23169Y15067
X24169Y15067
X25169Y15067
X26169Y15067
X27169Y15067
X28169Y15067
X29169Y15067
X30169Y15067
X31169Y15067
X32169Y15067
X33169Y15067
X34169Y15067
X37448Y14830
T06
X43574Y16641
X45574Y16641
M30
