G75*
%MOIN*%
%OFA0B0*%
%FSLAX24Y24*%
%IPPOS*%
%LPD*%
%AMOC8*
5,1,8,0,0,1.08239X$1,22.5*
%
%ADD10C,0.0100*%
%ADD11C,0.0060*%
%ADD12C,0.0040*%
%ADD13C,0.0080*%
%ADD14R,0.0380X0.0660*%
%ADD15C,0.0038*%
%ADD16C,0.0050*%
%ADD17R,0.0700X0.0200*%
%ADD18C,0.0240*%
%ADD19R,0.0420X0.0540*%
%ADD20C,0.0120*%
%ADD21C,0.0000*%
%ADD22C,0.0030*%
D10*
X011734Y009923D02*
X011734Y013348D01*
X013506Y013348D01*
X013506Y009923D01*
X011734Y009923D01*
D11*
X011992Y010026D02*
X012015Y010024D01*
X012038Y010019D01*
X012060Y010010D01*
X012080Y009997D01*
X012098Y009982D01*
X012113Y009964D01*
X012126Y009944D01*
X012135Y009922D01*
X012140Y009899D01*
X012142Y009876D01*
X012142Y008426D01*
X011842Y008126D01*
X010642Y008126D01*
X010342Y008426D01*
X010342Y009876D01*
X010344Y009899D01*
X010349Y009922D01*
X010358Y009944D01*
X010371Y009964D01*
X010386Y009982D01*
X010404Y009997D01*
X010424Y010010D01*
X010446Y010019D01*
X010469Y010024D01*
X010492Y010026D01*
X011992Y010026D01*
X010832Y008376D02*
X010582Y008376D01*
X010702Y008506D02*
X010702Y008246D01*
X012186Y012639D02*
X012188Y012680D01*
X012194Y012721D01*
X012204Y012761D01*
X012217Y012800D01*
X012234Y012838D01*
X012255Y012874D01*
X012279Y012907D01*
X012306Y012938D01*
X012336Y012967D01*
X012368Y012993D01*
X012403Y013015D01*
X012440Y013034D01*
X012478Y013049D01*
X012518Y013061D01*
X012558Y013069D01*
X012599Y013073D01*
X012641Y013073D01*
X012682Y013069D01*
X012722Y013061D01*
X012762Y013049D01*
X012800Y013034D01*
X012837Y013015D01*
X012872Y012993D01*
X012904Y012967D01*
X012934Y012938D01*
X012961Y012907D01*
X012985Y012874D01*
X013006Y012838D01*
X013023Y012800D01*
X013036Y012761D01*
X013046Y012721D01*
X013052Y012680D01*
X013054Y012639D01*
X013052Y012598D01*
X013046Y012557D01*
X013036Y012517D01*
X013023Y012478D01*
X013006Y012440D01*
X012985Y012404D01*
X012961Y012371D01*
X012934Y012340D01*
X012904Y012311D01*
X012872Y012285D01*
X012837Y012263D01*
X012800Y012244D01*
X012762Y012229D01*
X012722Y012217D01*
X012682Y012209D01*
X012641Y012205D01*
X012599Y012205D01*
X012558Y012209D01*
X012518Y012217D01*
X012478Y012229D01*
X012440Y012244D01*
X012403Y012263D01*
X012368Y012285D01*
X012336Y012311D01*
X012306Y012340D01*
X012279Y012371D01*
X012255Y012404D01*
X012234Y012440D01*
X012217Y012478D01*
X012204Y012517D01*
X012194Y012557D01*
X012188Y012598D01*
X012186Y012639D01*
X006950Y015707D02*
X006950Y015907D01*
X006510Y015907D01*
X006510Y015707D01*
X006950Y015707D01*
X006950Y016207D02*
X006950Y016407D01*
X006510Y016407D01*
X006510Y016207D01*
X006950Y016207D01*
X006950Y016707D02*
X006510Y016707D01*
X006510Y016907D01*
X006950Y016907D01*
X006950Y016707D01*
X006950Y017207D02*
X006950Y017407D01*
X006510Y017407D01*
X006510Y017207D01*
X006950Y017207D01*
X006510Y017537D02*
X005610Y017537D01*
X004950Y017537D01*
X004950Y015577D01*
X006510Y015577D01*
X006510Y017537D01*
X006510Y018923D02*
X006510Y020883D01*
X005610Y020883D01*
X004950Y020883D01*
X004950Y018923D01*
X006510Y018923D01*
X006510Y019053D02*
X006950Y019053D01*
X006950Y019253D01*
X006510Y019253D01*
X006510Y019053D01*
X006510Y019553D02*
X006950Y019553D01*
X006950Y019753D01*
X006510Y019753D01*
X006510Y019553D01*
X006510Y020053D02*
X006950Y020053D01*
X006950Y020253D01*
X006510Y020253D01*
X006510Y020053D01*
X006510Y020553D02*
X006950Y020553D01*
X006950Y020753D01*
X006510Y020753D01*
X006510Y020553D01*
X006510Y022073D02*
X006510Y024033D01*
X005610Y024033D01*
X004950Y024033D01*
X004950Y022073D01*
X006510Y022073D01*
X006510Y022203D02*
X006950Y022203D01*
X006950Y022403D01*
X006510Y022403D01*
X006510Y022203D01*
X006510Y022703D02*
X006950Y022703D01*
X006950Y022903D01*
X006510Y022903D01*
X006510Y022703D01*
X006510Y023203D02*
X006950Y023203D01*
X006950Y023403D01*
X006510Y023403D01*
X006510Y023203D01*
X006510Y023703D02*
X006950Y023703D01*
X006950Y023903D01*
X006510Y023903D01*
X006510Y023703D01*
X004950Y023703D02*
X004510Y023703D01*
X004510Y023903D01*
X004950Y023903D01*
X004950Y023703D01*
X004950Y023403D02*
X004510Y023403D01*
X004510Y023203D01*
X004950Y023203D01*
X004950Y023403D01*
X004950Y022903D02*
X004510Y022903D01*
X004510Y022703D01*
X004950Y022703D01*
X004950Y022903D01*
X004950Y022403D02*
X004510Y022403D01*
X004510Y022203D01*
X004950Y022203D01*
X004950Y022403D01*
X004950Y020753D02*
X004510Y020753D01*
X004510Y020553D01*
X004950Y020553D01*
X004950Y020753D01*
X004950Y020253D02*
X004510Y020253D01*
X004510Y020053D01*
X004950Y020053D01*
X004950Y020253D01*
X004950Y019753D02*
X004510Y019753D01*
X004510Y019553D01*
X004950Y019553D01*
X004950Y019753D01*
X004950Y019253D02*
X004510Y019253D01*
X004510Y019053D01*
X004950Y019053D01*
X004950Y019253D01*
X004950Y017407D02*
X004510Y017407D01*
X004510Y017207D01*
X004950Y017207D01*
X004950Y017407D01*
X004950Y016907D02*
X004510Y016907D01*
X004510Y016707D01*
X004950Y016707D01*
X004950Y016907D01*
X004950Y016407D02*
X004510Y016407D01*
X004510Y016207D01*
X004950Y016207D01*
X004950Y016407D01*
X004950Y015907D02*
X004510Y015907D01*
X004510Y015707D01*
X004950Y015707D01*
X004950Y015907D01*
X005193Y013076D02*
X005219Y013074D01*
X005245Y013069D01*
X005270Y013061D01*
X005293Y013049D01*
X005315Y013035D01*
X005334Y013017D01*
X005352Y012998D01*
X005366Y012976D01*
X005378Y012953D01*
X005386Y012928D01*
X005391Y012902D01*
X005393Y012876D01*
X005393Y011576D01*
X005391Y011550D01*
X005386Y011524D01*
X005378Y011499D01*
X005366Y011476D01*
X005352Y011454D01*
X005334Y011435D01*
X005315Y011417D01*
X005293Y011403D01*
X005270Y011391D01*
X005245Y011383D01*
X005219Y011378D01*
X005193Y011376D01*
X004943Y011726D02*
X004943Y012106D01*
X004943Y012356D02*
X004943Y012726D01*
X004693Y013076D02*
X004667Y013074D01*
X004641Y013069D01*
X004616Y013061D01*
X004593Y013049D01*
X004571Y013035D01*
X004552Y013017D01*
X004534Y012998D01*
X004520Y012976D01*
X004508Y012953D01*
X004500Y012928D01*
X004495Y012902D01*
X004493Y012876D01*
X004493Y011576D01*
X004495Y011550D01*
X004500Y011524D01*
X004508Y011499D01*
X004520Y011476D01*
X004534Y011454D01*
X004552Y011435D01*
X004571Y011417D01*
X004593Y011403D01*
X004616Y011391D01*
X004641Y011383D01*
X004667Y011378D01*
X004693Y011376D01*
X004943Y010070D02*
X004943Y010020D01*
X004593Y010020D01*
X004593Y008920D01*
X004943Y008920D01*
X005293Y008920D01*
X005293Y010020D01*
X004943Y010020D01*
X004943Y008920D02*
X004943Y008870D01*
X004243Y005714D02*
X004245Y005766D01*
X004251Y005818D01*
X004261Y005870D01*
X004274Y005920D01*
X004291Y005970D01*
X004312Y006018D01*
X004337Y006064D01*
X004365Y006108D01*
X004396Y006150D01*
X004430Y006190D01*
X004467Y006227D01*
X004507Y006261D01*
X004549Y006292D01*
X004593Y006320D01*
X004639Y006345D01*
X004687Y006366D01*
X004737Y006383D01*
X004787Y006396D01*
X004839Y006406D01*
X004891Y006412D01*
X004943Y006414D01*
X004995Y006412D01*
X005047Y006406D01*
X005099Y006396D01*
X005149Y006383D01*
X005199Y006366D01*
X005247Y006345D01*
X005293Y006320D01*
X005337Y006292D01*
X005379Y006261D01*
X005419Y006227D01*
X005456Y006190D01*
X005490Y006150D01*
X005521Y006108D01*
X005549Y006064D01*
X005574Y006018D01*
X005595Y005970D01*
X005612Y005920D01*
X005625Y005870D01*
X005635Y005818D01*
X005641Y005766D01*
X005643Y005714D01*
X005641Y005662D01*
X005635Y005610D01*
X005625Y005558D01*
X005612Y005508D01*
X005595Y005458D01*
X005574Y005410D01*
X005549Y005364D01*
X005521Y005320D01*
X005490Y005278D01*
X005456Y005238D01*
X005419Y005201D01*
X005379Y005167D01*
X005337Y005136D01*
X005293Y005108D01*
X005247Y005083D01*
X005199Y005062D01*
X005149Y005045D01*
X005099Y005032D01*
X005047Y005022D01*
X004995Y005016D01*
X004943Y005014D01*
X004891Y005016D01*
X004839Y005022D01*
X004787Y005032D01*
X004737Y005045D01*
X004687Y005062D01*
X004639Y005083D01*
X004593Y005108D01*
X004549Y005136D01*
X004507Y005167D01*
X004467Y005201D01*
X004430Y005238D01*
X004396Y005278D01*
X004365Y005320D01*
X004337Y005364D01*
X004312Y005410D01*
X004291Y005458D01*
X004274Y005508D01*
X004261Y005558D01*
X004251Y005610D01*
X004245Y005662D01*
X004243Y005714D01*
D12*
X010629Y006406D02*
X011243Y006406D01*
X011166Y006483D02*
X011089Y006559D01*
X011012Y006559D01*
X010936Y006483D01*
X010936Y006329D01*
X010859Y006253D01*
X010782Y006253D01*
X010705Y006329D01*
X010705Y006483D01*
X010782Y006559D01*
X010859Y006713D02*
X010705Y006866D01*
X011166Y006866D01*
X011166Y006713D02*
X011166Y007020D01*
X011166Y007173D02*
X010859Y007480D01*
X010782Y007480D01*
X010705Y007404D01*
X010705Y007250D01*
X010782Y007173D01*
X011166Y007173D02*
X011166Y007480D01*
X011166Y006483D02*
X011166Y006329D01*
X011089Y006253D01*
X011166Y006099D02*
X011166Y005792D01*
X010705Y005792D01*
X010705Y006099D01*
X010936Y005946D02*
X010936Y005792D01*
X013683Y012046D02*
X014143Y012046D01*
X014143Y012353D01*
X014066Y012506D02*
X014143Y012583D01*
X014143Y012736D01*
X014066Y012813D01*
X013990Y012813D01*
X013913Y012736D01*
X013913Y012583D01*
X013836Y012506D01*
X013759Y012506D01*
X013683Y012583D01*
X013683Y012736D01*
X013759Y012813D01*
X013606Y012660D02*
X014220Y012660D01*
X013913Y012967D02*
X013913Y013274D01*
X014143Y013197D02*
X013683Y013197D01*
X013913Y012967D01*
X013683Y012353D02*
X013683Y012046D01*
X013913Y012046D02*
X013913Y012199D01*
D13*
X010491Y006548D02*
X006480Y006548D01*
D14*
X007146Y006844D03*
X007816Y006844D03*
X008486Y006844D03*
X009156Y006844D03*
X009826Y006844D03*
D15*
X009343Y005774D02*
X009343Y003431D01*
X007629Y003431D01*
X007629Y005774D01*
X009343Y005774D01*
D16*
X004118Y005039D02*
X003667Y005039D01*
X003667Y005339D01*
X003742Y005500D02*
X003667Y005575D01*
X003667Y005725D01*
X003742Y005800D01*
X003892Y005725D02*
X003892Y005575D01*
X003817Y005500D01*
X003742Y005500D01*
X003592Y005650D02*
X004193Y005650D01*
X004118Y005725D02*
X004042Y005800D01*
X003967Y005800D01*
X003892Y005725D01*
X004118Y005725D02*
X004118Y005575D01*
X004042Y005500D01*
X004118Y005339D02*
X004118Y005039D01*
X003892Y005039D02*
X003892Y005189D01*
X003817Y005960D02*
X003667Y006110D01*
X004118Y006110D01*
X004118Y005960D02*
X004118Y006260D01*
X003892Y006420D02*
X003892Y006721D01*
X003667Y006646D02*
X003892Y006420D01*
X003667Y006646D02*
X004118Y006646D01*
X004192Y008745D02*
X004192Y008895D01*
X003967Y008745D02*
X004418Y008745D01*
X004418Y009045D01*
X004342Y009205D02*
X004418Y009281D01*
X004418Y009431D01*
X004342Y009506D01*
X004267Y009506D01*
X004192Y009431D01*
X004192Y009281D01*
X004117Y009205D01*
X004042Y009205D01*
X003967Y009281D01*
X003967Y009431D01*
X004042Y009506D01*
X004117Y009666D02*
X003967Y009816D01*
X004418Y009816D01*
X004418Y009666D02*
X004418Y009966D01*
X004342Y010126D02*
X004418Y010201D01*
X004418Y010351D01*
X004342Y010427D01*
X004192Y010427D01*
X004117Y010351D01*
X004117Y010276D01*
X004192Y010126D01*
X003967Y010126D01*
X003967Y010427D01*
X003917Y011401D02*
X004368Y011401D01*
X004368Y011701D01*
X004292Y011861D02*
X004368Y011936D01*
X004368Y012087D01*
X004292Y012162D01*
X004217Y012162D01*
X004142Y012087D01*
X004142Y011936D01*
X004067Y011861D01*
X003992Y011861D01*
X003917Y011936D01*
X003917Y012087D01*
X003992Y012162D01*
X004067Y012322D02*
X003917Y012472D01*
X004368Y012472D01*
X004368Y012322D02*
X004368Y012622D01*
X004292Y012782D02*
X004142Y012782D01*
X004142Y013007D01*
X004217Y013082D01*
X004292Y013082D01*
X004368Y013007D01*
X004368Y012857D01*
X004292Y012782D01*
X004142Y012782D02*
X003992Y012932D01*
X003917Y013082D01*
X003842Y012012D02*
X004443Y012012D01*
X004142Y011551D02*
X004142Y011401D01*
X003917Y011401D02*
X003917Y011701D01*
X003892Y009356D02*
X004493Y009356D01*
X003967Y009045D02*
X003967Y008745D01*
X005936Y008861D02*
X006236Y008861D01*
X006396Y008936D02*
X006471Y008861D01*
X006622Y008861D01*
X006697Y008936D01*
X006697Y009011D01*
X006622Y009086D01*
X006471Y009086D01*
X006396Y009161D01*
X006396Y009236D01*
X006471Y009311D01*
X006622Y009311D01*
X006697Y009236D01*
X006857Y009161D02*
X007007Y009311D01*
X007007Y008861D01*
X006857Y008861D02*
X007157Y008861D01*
X007317Y008936D02*
X007392Y008861D01*
X007542Y008861D01*
X007617Y008936D01*
X007617Y009236D01*
X007542Y009311D01*
X007392Y009311D01*
X007317Y009236D01*
X007317Y009161D01*
X007392Y009086D01*
X007617Y009086D01*
X007317Y010042D02*
X007317Y010117D01*
X007617Y010417D01*
X007617Y010492D01*
X007317Y010492D01*
X007007Y010492D02*
X007007Y010042D01*
X006857Y010042D02*
X007157Y010042D01*
X006857Y010342D02*
X007007Y010492D01*
X006697Y010417D02*
X006622Y010492D01*
X006471Y010492D01*
X006396Y010417D01*
X006396Y010342D01*
X006471Y010267D01*
X006622Y010267D01*
X006697Y010192D01*
X006697Y010117D01*
X006622Y010042D01*
X006471Y010042D01*
X006396Y010117D01*
X006236Y010042D02*
X005936Y010042D01*
X005936Y010492D01*
X006236Y010492D01*
X006086Y010267D02*
X005936Y010267D01*
X005936Y009311D02*
X005936Y008861D01*
X005936Y009086D02*
X006086Y009086D01*
X006236Y009311D02*
X005936Y009311D01*
X006547Y009386D02*
X006547Y008786D01*
X006547Y009967D02*
X006547Y010567D01*
X007905Y011223D02*
X008205Y011223D01*
X008365Y011298D02*
X008440Y011223D01*
X008590Y011223D01*
X008665Y011298D01*
X008665Y011373D01*
X008590Y011448D01*
X008440Y011448D01*
X008365Y011523D01*
X008365Y011598D01*
X008440Y011673D01*
X008590Y011673D01*
X008665Y011598D01*
X008825Y011673D02*
X009126Y011673D01*
X009126Y011598D01*
X008825Y011298D01*
X008825Y011223D01*
X008515Y011148D02*
X008515Y011748D01*
X008205Y011673D02*
X007905Y011673D01*
X007905Y011223D01*
X007905Y011448D02*
X008055Y011448D01*
X009766Y009958D02*
X009841Y010033D01*
X009916Y010033D01*
X009992Y009958D01*
X010067Y010033D01*
X010142Y010033D01*
X010217Y009958D01*
X010217Y009808D01*
X010142Y009733D01*
X010217Y009572D02*
X010217Y009272D01*
X010217Y009422D02*
X009766Y009422D01*
X009916Y009272D01*
X009841Y009112D02*
X009766Y009037D01*
X009766Y008887D01*
X009841Y008812D01*
X009916Y008812D01*
X009992Y008887D01*
X009992Y009037D01*
X010067Y009112D01*
X010142Y009112D01*
X010217Y009037D01*
X010217Y008887D01*
X010142Y008812D01*
X010217Y008652D02*
X010217Y008351D01*
X009766Y008351D01*
X009766Y008652D01*
X009992Y008502D02*
X009992Y008351D01*
X010292Y008962D02*
X009691Y008962D01*
X009841Y009733D02*
X009766Y009808D01*
X009766Y009958D01*
X009992Y009958D02*
X009992Y009883D01*
X009882Y016172D02*
X009432Y016172D01*
X009432Y016473D01*
X009507Y016633D02*
X009432Y016708D01*
X009432Y016858D01*
X009507Y016933D01*
X009657Y016858D02*
X009657Y016708D01*
X009582Y016633D01*
X009507Y016633D01*
X009357Y016783D02*
X009958Y016783D01*
X009882Y016858D02*
X009807Y016933D01*
X009732Y016933D01*
X009657Y016858D01*
X009657Y017093D02*
X009657Y017318D01*
X009732Y017393D01*
X009807Y017393D01*
X009882Y017318D01*
X009882Y017168D01*
X009807Y017093D01*
X009657Y017093D01*
X009507Y017243D01*
X009432Y017393D01*
X009882Y016708D02*
X009807Y016633D01*
X009882Y016708D02*
X009882Y016858D01*
X009882Y016473D02*
X009882Y016172D01*
X009657Y016172D02*
X009657Y016322D01*
X009657Y019716D02*
X009657Y019866D01*
X009432Y020016D02*
X009432Y019716D01*
X009882Y019716D01*
X009882Y020016D01*
X009807Y020176D02*
X009882Y020251D01*
X009882Y020401D01*
X009807Y020476D01*
X009732Y020476D01*
X009657Y020401D01*
X009657Y020251D01*
X009582Y020176D01*
X009507Y020176D01*
X009432Y020251D01*
X009432Y020401D01*
X009507Y020476D01*
X009432Y020636D02*
X009657Y020636D01*
X009582Y020786D01*
X009582Y020862D01*
X009657Y020937D01*
X009807Y020937D01*
X009882Y020862D01*
X009882Y020711D01*
X009807Y020636D01*
X009958Y020326D02*
X009357Y020326D01*
X009432Y020636D02*
X009432Y020937D01*
D17*
X004943Y009170D03*
D18*
X006381Y009667D02*
X007441Y009667D01*
X007441Y008486D02*
X006381Y008486D01*
X008350Y010848D02*
X009410Y010848D01*
X010257Y016617D02*
X010257Y017677D01*
X010257Y020161D02*
X010257Y021221D01*
D19*
X004943Y006694D03*
D20*
X004943Y012106D02*
X004643Y012106D01*
X004643Y012356D02*
X004943Y012356D01*
X005243Y012356D01*
X005243Y012106D02*
X004943Y012106D01*
D21*
X005610Y017537D02*
X005613Y017516D01*
X005619Y017496D01*
X005629Y017478D01*
X005641Y017461D01*
X005657Y017447D01*
X005674Y017436D01*
X005694Y017428D01*
X005714Y017423D01*
X005735Y017422D01*
X005756Y017425D01*
X005776Y017431D01*
X005794Y017441D01*
X005811Y017453D01*
X005825Y017469D01*
X005836Y017486D01*
X005844Y017506D01*
X005849Y017526D01*
X005850Y017547D01*
X005610Y020883D02*
X005613Y020862D01*
X005619Y020842D01*
X005629Y020824D01*
X005641Y020807D01*
X005657Y020793D01*
X005674Y020782D01*
X005694Y020774D01*
X005714Y020769D01*
X005735Y020768D01*
X005756Y020771D01*
X005776Y020777D01*
X005794Y020787D01*
X005811Y020799D01*
X005825Y020815D01*
X005836Y020832D01*
X005844Y020852D01*
X005849Y020872D01*
X005850Y020893D01*
X005610Y024033D02*
X005613Y024012D01*
X005619Y023992D01*
X005629Y023974D01*
X005641Y023957D01*
X005657Y023943D01*
X005674Y023932D01*
X005694Y023924D01*
X005714Y023919D01*
X005735Y023918D01*
X005756Y023921D01*
X005776Y023927D01*
X005794Y023937D01*
X005811Y023949D01*
X005825Y023965D01*
X005836Y023982D01*
X005844Y024002D01*
X005849Y024022D01*
X005850Y024043D01*
D22*
X005771Y023288D02*
X005614Y023288D01*
X005536Y023210D01*
X005389Y023210D02*
X005311Y023288D01*
X005154Y023288D01*
X005075Y023210D01*
X005075Y023131D01*
X005154Y023053D01*
X005311Y023053D01*
X005389Y022975D01*
X005389Y022896D01*
X005311Y022818D01*
X005154Y022818D01*
X005075Y022896D01*
X004929Y022818D02*
X004615Y022818D01*
X004615Y023288D01*
X004929Y023288D01*
X004772Y023053D02*
X004615Y023053D01*
X005232Y023367D02*
X005232Y022739D01*
X005536Y022896D02*
X005614Y022818D01*
X005771Y022818D01*
X005849Y022896D01*
X005849Y022975D01*
X005771Y023053D01*
X005693Y023053D01*
X005771Y023053D02*
X005849Y023131D01*
X005849Y023210D01*
X005771Y023288D01*
X004739Y024086D02*
X004425Y024400D01*
X004582Y024400D02*
X004582Y024086D01*
X004425Y024086D02*
X004739Y024400D01*
X004739Y024243D02*
X004425Y024243D01*
X004425Y021250D02*
X004739Y020937D01*
X004739Y021093D02*
X004425Y021093D01*
X004425Y020937D02*
X004739Y021250D01*
X004582Y021250D02*
X004582Y020937D01*
X004615Y020139D02*
X004615Y019668D01*
X004929Y019668D01*
X005075Y019747D02*
X005154Y019668D01*
X005311Y019668D01*
X005389Y019747D01*
X005389Y019825D01*
X005311Y019903D01*
X005154Y019903D01*
X005075Y019982D01*
X005075Y020060D01*
X005154Y020139D01*
X005311Y020139D01*
X005389Y020060D01*
X005536Y019982D02*
X005693Y020139D01*
X005693Y019668D01*
X005849Y019668D02*
X005536Y019668D01*
X005232Y019590D02*
X005232Y020217D01*
X004929Y020139D02*
X004615Y020139D01*
X004615Y019903D02*
X004772Y019903D01*
X004739Y017904D02*
X004425Y017590D01*
X004582Y017590D02*
X004582Y017904D01*
X004425Y017904D02*
X004739Y017590D01*
X004739Y017747D02*
X004425Y017747D01*
X004615Y016792D02*
X004615Y016322D01*
X004929Y016322D01*
X005075Y016400D02*
X005154Y016322D01*
X005311Y016322D01*
X005389Y016400D01*
X005389Y016478D01*
X005311Y016557D01*
X005154Y016557D01*
X005075Y016635D01*
X005075Y016714D01*
X005154Y016792D01*
X005311Y016792D01*
X005389Y016714D01*
X005536Y016714D02*
X005614Y016792D01*
X005771Y016792D01*
X005849Y016714D01*
X005849Y016635D01*
X005536Y016322D01*
X005849Y016322D01*
X005232Y016243D02*
X005232Y016870D01*
X004929Y016792D02*
X004615Y016792D01*
X004615Y016557D02*
X004772Y016557D01*
M02*
