G75*
%MOIN*%
%OFA0B0*%
%FSLAX24Y24*%
%IPPOS*%
%LPD*%
%AMOC8*
5,1,8,0,0,1.08239X$1,22.5*
%
%ADD10C,0.0060*%
%ADD11C,0.0118*%
%ADD12C,0.0039*%
%ADD13C,0.0080*%
%ADD14C,0.0051*%
%ADD15C,0.0440*%
%ADD16C,0.0630*%
%ADD17OC8,0.0630*%
%ADD18OC8,0.0520*%
%ADD19OC8,0.0825*%
%ADD20C,0.0160*%
%ADD21R,0.0396X0.0396*%
%ADD22C,0.0436*%
D10*
X001818Y012059D02*
X002139Y012059D01*
X002245Y012166D01*
X002245Y012379D01*
X002139Y012486D01*
X001818Y012486D01*
X002463Y012486D02*
X002783Y012486D01*
X002890Y012379D01*
X002890Y012166D01*
X002783Y012059D01*
X002463Y012059D01*
X003108Y012273D02*
X003108Y012700D01*
X003108Y012273D02*
X003321Y012059D01*
X003535Y012273D01*
X003535Y012700D01*
X003321Y026036D02*
X003108Y026249D01*
X003108Y026676D01*
X002890Y026356D02*
X002890Y026142D01*
X002783Y026036D01*
X002463Y026036D01*
X002245Y026142D02*
X002245Y026356D01*
X002139Y026463D01*
X001818Y026463D01*
X001818Y026036D02*
X002139Y026036D01*
X002245Y026142D01*
X002463Y026463D02*
X002783Y026463D01*
X002890Y026356D01*
X003321Y026036D02*
X003535Y026249D01*
X003535Y026676D01*
X007796Y032955D02*
X008010Y032955D01*
X008117Y033061D01*
X008117Y033275D02*
X007903Y033382D01*
X007796Y033382D01*
X007690Y033275D01*
X007690Y033061D01*
X007796Y032955D01*
X007690Y033595D02*
X008117Y033595D01*
X008117Y033275D01*
X008332Y033061D02*
X008332Y032955D01*
X008439Y032955D01*
X008439Y033061D01*
X008332Y033061D01*
X008656Y033061D02*
X008763Y032955D01*
X008977Y032955D01*
X009083Y033061D01*
X008870Y033275D02*
X008763Y033275D01*
X008656Y033168D01*
X008656Y033061D01*
X008763Y033275D02*
X008656Y033382D01*
X008656Y033488D01*
X008763Y033595D01*
X008977Y033595D01*
X009083Y033488D01*
X009301Y033275D02*
X009728Y033275D01*
X009408Y033595D01*
X009408Y032955D01*
X017826Y016731D02*
X017826Y016304D01*
X017826Y016518D02*
X018466Y016518D01*
X018253Y016304D01*
X018253Y016087D02*
X018146Y015980D01*
X018146Y015766D01*
X018253Y015659D01*
X018360Y015659D01*
X018466Y015766D01*
X018466Y015980D01*
X018360Y016087D01*
X018253Y016087D01*
X018146Y015980D02*
X018039Y016087D01*
X017933Y016087D01*
X017826Y015980D01*
X017826Y015766D01*
X017933Y015659D01*
X018039Y015659D01*
X018146Y015766D01*
X013664Y007778D02*
X013451Y007778D01*
X013344Y007672D01*
X013344Y007458D02*
X013557Y007458D01*
X013344Y007458D02*
X013344Y007245D01*
X013451Y007138D01*
X013664Y007138D01*
X013771Y007245D01*
X013771Y007672D01*
X013664Y007778D01*
X013126Y007565D02*
X013126Y007138D01*
X013126Y007565D02*
X012806Y007565D01*
X012699Y007458D01*
X012699Y007138D01*
X012482Y007245D02*
X012482Y007458D01*
X012375Y007565D01*
X012055Y007565D01*
X012055Y007778D02*
X012055Y007138D01*
X012375Y007138D01*
X012482Y007245D01*
X012448Y005203D02*
X012769Y005203D01*
X012875Y005096D01*
X012875Y004882D01*
X012769Y004776D01*
X012448Y004776D01*
X013093Y004776D02*
X013413Y004776D01*
X013520Y004882D01*
X013520Y005096D01*
X013413Y005203D01*
X013093Y005203D01*
X013737Y004989D02*
X013737Y005416D01*
X013737Y004989D02*
X013951Y004776D01*
X014164Y004989D01*
X014164Y005416D01*
D11*
X017344Y000218D02*
X000218Y000218D01*
X000218Y032305D01*
X017344Y032305D01*
X017344Y000218D01*
D12*
X015844Y001718D02*
X015844Y030805D01*
X001718Y030805D01*
X001718Y001718D01*
X015844Y001718D01*
X014078Y001718D02*
X014078Y000218D01*
X012313Y000218D02*
X012313Y001718D01*
X010547Y001718D02*
X010547Y000218D01*
X008781Y000218D02*
X008781Y001718D01*
X007015Y001718D02*
X007015Y000218D01*
X005250Y000218D02*
X005250Y001718D01*
X003484Y001718D02*
X003484Y000218D01*
X001718Y007535D02*
X000218Y007535D01*
X000218Y013353D02*
X001718Y013353D01*
X001718Y019170D02*
X000218Y019170D01*
X000218Y024987D02*
X001718Y024987D01*
X003484Y030805D02*
X003484Y032305D01*
X005250Y032305D02*
X005250Y030805D01*
X007015Y030805D02*
X007015Y032305D01*
X008781Y032305D02*
X008781Y030805D01*
X010547Y030805D02*
X010547Y032305D01*
X012313Y032305D02*
X012313Y030805D01*
X014078Y030805D02*
X014078Y032305D01*
X015844Y024987D02*
X017344Y024987D01*
X017344Y019170D02*
X015844Y019170D01*
X015844Y013353D02*
X017344Y013353D01*
X017344Y007535D02*
X015844Y007535D01*
D13*
X016161Y005101D02*
X016161Y004153D01*
X016793Y004153D01*
X016477Y004627D02*
X016161Y004627D01*
X016161Y005101D02*
X016793Y005101D01*
X015002Y001443D02*
X014686Y001443D01*
X014528Y001285D01*
X014528Y001127D01*
X014686Y000969D01*
X015002Y000969D01*
X015160Y000810D01*
X015160Y000652D01*
X015002Y000494D01*
X014686Y000494D01*
X014528Y000652D01*
X014528Y000810D01*
X014686Y000969D01*
X015002Y000969D02*
X015160Y001127D01*
X015160Y001285D01*
X015002Y001443D01*
X013395Y001443D02*
X013395Y001285D01*
X012762Y000652D01*
X012762Y000494D01*
X012762Y001443D02*
X013395Y001443D01*
X011629Y001443D02*
X011313Y001285D01*
X010997Y000969D01*
X011471Y000969D01*
X011629Y000810D01*
X011629Y000652D01*
X011471Y000494D01*
X011155Y000494D01*
X010997Y000652D01*
X010997Y000969D01*
X009863Y000969D02*
X009863Y000652D01*
X009705Y000494D01*
X009389Y000494D01*
X009231Y000652D01*
X009231Y000969D02*
X009547Y001127D01*
X009705Y001127D01*
X009863Y000969D01*
X009863Y001443D02*
X009231Y001443D01*
X009231Y000969D01*
X008097Y000969D02*
X007465Y000969D01*
X007939Y001443D01*
X007939Y000494D01*
X006332Y000652D02*
X006174Y000494D01*
X005857Y000494D01*
X005699Y000652D01*
X006016Y000969D02*
X006174Y000969D01*
X006332Y000810D01*
X006332Y000652D01*
X006174Y000969D02*
X006332Y001127D01*
X006332Y001285D01*
X006174Y001443D01*
X005857Y001443D01*
X005699Y001285D01*
X004566Y001285D02*
X004408Y001443D01*
X004092Y001443D01*
X003934Y001285D01*
X004566Y001127D02*
X003934Y000494D01*
X004566Y000494D01*
X004566Y001127D02*
X004566Y001285D01*
X002800Y000494D02*
X002168Y000494D01*
X002484Y000494D02*
X002484Y001443D01*
X002168Y001127D01*
X001167Y004153D02*
X000535Y004153D01*
X000535Y005101D01*
X001167Y005101D01*
X000851Y004627D02*
X000535Y004627D01*
X000535Y009970D02*
X001009Y009970D01*
X001167Y010128D01*
X001167Y010761D01*
X001009Y010919D01*
X000535Y010919D01*
X000535Y009970D01*
X000693Y015788D02*
X000535Y015946D01*
X000535Y016578D01*
X000693Y016736D01*
X001009Y016736D01*
X001167Y016578D01*
X001167Y015946D02*
X001009Y015788D01*
X000693Y015788D01*
X000535Y021605D02*
X001009Y021605D01*
X001167Y021763D01*
X001167Y021921D01*
X001009Y022079D01*
X000535Y022079D01*
X000535Y021605D02*
X000535Y022553D01*
X001009Y022553D01*
X001167Y022395D01*
X001167Y022237D01*
X001009Y022079D01*
X001167Y027422D02*
X001167Y028055D01*
X000851Y028371D01*
X000535Y028055D01*
X000535Y027422D01*
X000535Y027896D02*
X001167Y027896D01*
X002168Y031081D02*
X002800Y031081D01*
X002484Y031081D02*
X002484Y032029D01*
X002168Y031713D01*
X003934Y031871D02*
X004092Y032029D01*
X004408Y032029D01*
X004566Y031871D01*
X004566Y031713D01*
X003934Y031081D01*
X004566Y031081D01*
X005699Y031239D02*
X005857Y031081D01*
X006174Y031081D01*
X006332Y031239D01*
X006332Y031397D01*
X006174Y031555D01*
X006016Y031555D01*
X006174Y031555D02*
X006332Y031713D01*
X006332Y031871D01*
X006174Y032029D01*
X005857Y032029D01*
X005699Y031871D01*
X007465Y031555D02*
X008097Y031555D01*
X007939Y031081D02*
X007939Y032029D01*
X007465Y031555D01*
X009231Y031555D02*
X009547Y031713D01*
X009705Y031713D01*
X009863Y031555D01*
X009863Y031239D01*
X009705Y031081D01*
X009389Y031081D01*
X009231Y031239D01*
X009231Y031555D02*
X009231Y032029D01*
X009863Y032029D01*
X010997Y031555D02*
X010997Y031239D01*
X011155Y031081D01*
X011471Y031081D01*
X011629Y031239D01*
X011629Y031397D01*
X011471Y031555D01*
X010997Y031555D01*
X011313Y031871D01*
X011629Y032029D01*
X012762Y032029D02*
X013395Y032029D01*
X013395Y031871D01*
X012762Y031239D01*
X012762Y031081D01*
X014528Y031239D02*
X014528Y031397D01*
X014686Y031555D01*
X015002Y031555D01*
X015160Y031397D01*
X015160Y031239D01*
X015002Y031081D01*
X014686Y031081D01*
X014528Y031239D01*
X014686Y031555D02*
X014528Y031713D01*
X014528Y031871D01*
X014686Y032029D01*
X015002Y032029D01*
X015160Y031871D01*
X015160Y031713D01*
X015002Y031555D01*
X016477Y028371D02*
X016793Y028055D01*
X016793Y027422D01*
X016793Y027896D02*
X016161Y027896D01*
X016161Y028055D02*
X016477Y028371D01*
X016161Y028055D02*
X016161Y027422D01*
X016161Y022553D02*
X016635Y022553D01*
X016793Y022395D01*
X016793Y022237D01*
X016635Y022079D01*
X016161Y022079D01*
X016161Y021605D02*
X016161Y022553D01*
X016635Y022079D02*
X016793Y021921D01*
X016793Y021763D01*
X016635Y021605D01*
X016161Y021605D01*
X016319Y016736D02*
X016161Y016578D01*
X016161Y015946D01*
X016319Y015788D01*
X016635Y015788D01*
X016793Y015946D01*
X016793Y016578D02*
X016635Y016736D01*
X016319Y016736D01*
X016161Y010919D02*
X016635Y010919D01*
X016793Y010761D01*
X016793Y010128D01*
X016635Y009970D01*
X016161Y009970D01*
X016161Y010919D01*
D14*
X018596Y001439D02*
X018848Y001439D01*
X018722Y000415D01*
X018824Y001439D01*
X018773Y001439D02*
X018722Y000415D01*
X018620Y001439D01*
X018596Y001439D02*
X018722Y000415D01*
X018671Y001439D01*
X018722Y000415D02*
X018722Y032305D01*
X018824Y031281D01*
X018848Y031281D02*
X018596Y031281D01*
X018722Y032305D01*
X018620Y031281D01*
X018671Y031281D02*
X018722Y032305D01*
X018773Y031281D01*
X018848Y031281D02*
X018722Y032305D01*
X018328Y032305D02*
X019490Y032305D01*
X017344Y032698D02*
X016320Y032596D01*
X016320Y032573D02*
X017344Y032698D01*
X016320Y032801D01*
X016320Y032824D02*
X016320Y032573D01*
X016320Y032647D02*
X017344Y032698D01*
X016320Y032750D01*
X016320Y032824D02*
X017344Y032698D01*
X000218Y032698D01*
X001242Y032596D01*
X001242Y032573D02*
X000218Y032698D01*
X001242Y032801D01*
X001242Y032824D02*
X001242Y032573D01*
X001242Y032647D02*
X000218Y032698D01*
X001242Y032750D01*
X001242Y032824D02*
X000218Y032698D01*
X000218Y032698D01*
X017344Y032698D02*
X017344Y032698D01*
X018328Y000415D02*
X019490Y000415D01*
D15*
X012620Y010635D03*
X012620Y011635D03*
X012620Y012635D03*
D16*
X011242Y008576D03*
D17*
X011242Y009576D03*
X009880Y010848D03*
X007880Y010848D03*
X007911Y009667D03*
X007911Y008486D03*
X005911Y008486D03*
X005911Y009667D03*
X010257Y016147D03*
X010257Y018147D03*
X010257Y019691D03*
X010257Y021691D03*
D18*
X004943Y013226D03*
X004943Y011226D03*
X004943Y010470D03*
X004943Y008470D03*
D19*
X004943Y007714D03*
X004943Y005714D03*
D20*
X004943Y005730D02*
X004943Y005927D01*
X005927Y006911D01*
X005927Y008486D01*
X004943Y008683D02*
X005927Y009667D01*
X004943Y010454D02*
X004943Y011242D01*
X004943Y010454D02*
X006714Y012226D01*
X007108Y012226D01*
X010257Y012226D01*
X008486Y010454D01*
X008486Y007698D01*
X008486Y007502D01*
X007895Y007698D02*
X007895Y008486D01*
X007108Y007698D02*
X007108Y007502D01*
X007108Y007698D02*
X007108Y012226D01*
X007895Y010848D02*
X007895Y009667D01*
X009273Y010257D02*
X009273Y007698D01*
X009273Y007502D01*
X009864Y007502D02*
X011242Y007502D01*
X011242Y007108D01*
X012620Y005730D01*
X012620Y005533D01*
X011832Y004746D01*
X011832Y001990D01*
X003958Y001990D01*
X003958Y004746D01*
X002580Y006124D01*
X002580Y011635D01*
X003761Y013210D02*
X005533Y014982D01*
X005533Y016754D01*
X009273Y016754D01*
X009273Y016360D01*
X006714Y016360D01*
X006714Y015769D02*
X009864Y015769D01*
X010257Y016163D01*
X010257Y012226D01*
X011242Y011242D01*
X011242Y010454D01*
X012423Y010454D01*
X012620Y010651D01*
X012620Y007895D01*
X011242Y007698D02*
X011242Y007502D01*
X011242Y007698D02*
X011242Y008683D01*
X011242Y009470D02*
X011242Y010454D01*
X009864Y010848D02*
X009273Y010257D01*
X009864Y007698D02*
X011242Y007698D01*
X012620Y005730D02*
X013604Y005730D01*
X014194Y006320D01*
X014194Y022462D01*
X010848Y025809D01*
X002580Y025809D01*
X002580Y024037D02*
X002777Y023840D01*
X004746Y023840D01*
X004746Y023250D02*
X002777Y023250D01*
X002580Y023446D01*
X002580Y022856D02*
X004943Y022856D01*
X004943Y022265D02*
X002580Y022265D01*
X002580Y021084D02*
X004155Y021084D01*
X004549Y020691D01*
X004746Y020100D02*
X003761Y020100D01*
X003368Y020494D01*
X002580Y020494D01*
X002580Y019903D02*
X003171Y019903D01*
X003368Y019706D01*
X004943Y019706D01*
X004746Y019116D02*
X002777Y019116D01*
X002580Y019313D01*
X002580Y017541D02*
X002777Y017344D01*
X004943Y017344D01*
X004746Y016754D02*
X002777Y016754D01*
X002580Y016950D01*
X002580Y016360D02*
X004746Y016360D01*
X004943Y015769D02*
X002580Y015769D01*
X003761Y013210D02*
X003761Y006911D01*
X004943Y005730D01*
X004943Y007698D02*
X004943Y008683D01*
X004943Y013210D02*
X004943Y014194D01*
X005533Y016754D02*
X005533Y016950D01*
X005533Y020100D01*
X009273Y020100D01*
X009273Y019706D01*
X006714Y019706D01*
X006714Y019116D02*
X010257Y019116D01*
X010257Y018328D01*
X010454Y018131D01*
X011045Y017344D02*
X012620Y018919D01*
X012620Y012620D01*
X011045Y017344D02*
X006714Y017344D01*
X005533Y020100D02*
X005533Y023250D01*
X006714Y023250D01*
X006911Y023250D02*
X009273Y023250D01*
X009273Y022856D01*
X006911Y022856D01*
X006714Y022265D02*
X009667Y022265D01*
X010257Y021675D01*
X010257Y019706D02*
X010257Y019116D01*
X012423Y020691D02*
X012620Y020494D01*
X012620Y018919D01*
X012620Y020494D02*
X012620Y021872D01*
X009864Y024628D01*
X007502Y024628D01*
X006714Y023840D01*
X006714Y020691D02*
X012423Y020691D01*
D21*
X010257Y012226D03*
X012620Y007895D03*
X012620Y005730D03*
X002580Y011635D03*
X002580Y015769D03*
X002580Y016360D03*
X002580Y016950D03*
X002580Y017541D03*
X002580Y019313D03*
X002580Y019903D03*
X002580Y020494D03*
X002580Y021084D03*
X002580Y022265D03*
X002580Y022856D03*
X002580Y023446D03*
X002580Y024037D03*
X002580Y025809D03*
D22*
X007108Y007698D03*
X007895Y007698D03*
X008486Y007698D03*
X009273Y007698D03*
X009864Y007698D03*
M02*
