G75*
%MOIN*%
%OFA0B0*%
%FSLAX24Y24*%
%IPPOS*%
%LPD*%
%AMOC8*
5,1,8,0,0,1.08239X$1,22.5*
%
%ADD10C,0.0440*%
%ADD11R,0.4200X0.3500*%
%ADD12R,0.0420X0.0900*%
%ADD13C,0.0630*%
%ADD14OC8,0.0630*%
%ADD15OC8,0.0520*%
%ADD16OC8,0.0825*%
%ADD17R,0.0900X0.0240*%
%ADD18R,0.0396X0.0396*%
%ADD19C,0.0436*%
D10*
X012620Y010635D03*
X012620Y011635D03*
X012620Y012635D03*
D11*
X008486Y004155D03*
D12*
X008486Y007605D03*
X009156Y007605D03*
X009826Y007605D03*
X007816Y007605D03*
X007146Y007605D03*
D13*
X011242Y008576D03*
D14*
X011242Y009576D03*
X009880Y010848D03*
X007880Y010848D03*
X007911Y009667D03*
X007911Y008486D03*
X005911Y008486D03*
X005911Y009667D03*
X010257Y016147D03*
X010257Y018147D03*
X010257Y019691D03*
X010257Y021691D03*
D15*
X004943Y013226D03*
X004943Y011226D03*
X004943Y010470D03*
X004943Y008470D03*
D16*
X004943Y005714D03*
X004943Y007714D03*
D17*
X004740Y015807D03*
X004740Y016307D03*
X004740Y016807D03*
X004740Y017307D03*
X004740Y019153D03*
X004740Y019653D03*
X004740Y020153D03*
X004740Y020653D03*
X004740Y022303D03*
X004740Y022803D03*
X004740Y023303D03*
X004740Y023803D03*
X006720Y023803D03*
X006720Y023303D03*
X006720Y022803D03*
X006720Y022303D03*
X006720Y020653D03*
X006720Y020153D03*
X006720Y019653D03*
X006720Y019153D03*
X006720Y017307D03*
X006720Y016807D03*
X006720Y016307D03*
X006720Y015807D03*
D18*
X010257Y012226D03*
X012620Y007895D03*
X012620Y005730D03*
X002580Y011635D03*
X002580Y015769D03*
X002580Y016360D03*
X002580Y016950D03*
X002580Y017541D03*
X002580Y019313D03*
X002580Y019903D03*
X002580Y020494D03*
X002580Y021084D03*
X002580Y022265D03*
X002580Y022856D03*
X002580Y023446D03*
X002580Y024037D03*
X002580Y025809D03*
D19*
X007108Y007698D03*
X007895Y007698D03*
X008486Y007698D03*
X009273Y007698D03*
X009864Y007698D03*
M02*
