G75*
%MOIN*%
%OFA0B0*%
%FSLAX24Y24*%
%IPPOS*%
%LPD*%
%AMOC8*
5,1,8,0,0,1.08239X$1,22.5*
%
%ADD10C,0.0100*%
%ADD11C,0.0060*%
%ADD12C,0.0040*%
%ADD13C,0.0080*%
%ADD14R,0.0660X0.0380*%
%ADD15C,0.0038*%
%ADD16C,0.0050*%
%ADD17R,0.0200X0.0700*%
%ADD18C,0.0240*%
%ADD19R,0.0540X0.0420*%
%ADD20C,0.0120*%
%ADD21C,0.0000*%
%ADD22C,0.0030*%
D10*
X032429Y020401D02*
X032429Y022173D01*
X035854Y022173D01*
X035854Y020401D01*
X032429Y020401D01*
D11*
X022919Y014567D02*
X022669Y014817D01*
X022669Y015317D01*
X022919Y015567D01*
X023419Y015567D01*
X023669Y015317D01*
X023919Y015567D01*
X024419Y015567D01*
X024669Y015317D01*
X024669Y014817D01*
X024419Y014567D01*
X023919Y014567D01*
X023669Y014817D01*
X023419Y014567D01*
X022919Y014567D01*
X023669Y014817D02*
X023669Y015317D01*
X024669Y015317D02*
X024919Y015567D01*
X025419Y015567D01*
X025669Y015317D01*
X025919Y015567D01*
X026419Y015567D01*
X026669Y015317D01*
X026919Y015567D01*
X027419Y015567D01*
X027669Y015317D01*
X027669Y014817D01*
X027419Y014567D01*
X026919Y014567D01*
X026669Y014817D01*
X026419Y014567D01*
X025919Y014567D01*
X025669Y014817D01*
X025419Y014567D01*
X024919Y014567D01*
X024669Y014817D01*
X025669Y014817D02*
X025669Y015317D01*
X026669Y015317D02*
X026669Y014817D01*
X027669Y014817D02*
X027919Y014567D01*
X028419Y014567D01*
X028669Y014817D01*
X028919Y014567D01*
X029419Y014567D01*
X029669Y014817D01*
X029919Y014567D01*
X030419Y014567D01*
X030669Y014817D01*
X030669Y015317D01*
X030419Y015567D01*
X029919Y015567D01*
X029669Y015317D01*
X029669Y014817D01*
X029669Y015317D02*
X029419Y015567D01*
X028919Y015567D01*
X028669Y015317D01*
X028669Y014817D01*
X028669Y015317D02*
X028419Y015567D01*
X027919Y015567D01*
X027669Y015317D01*
X030669Y015317D02*
X030919Y015567D01*
X031419Y015567D01*
X031669Y015317D01*
X031919Y015567D01*
X032419Y015567D01*
X032669Y015317D01*
X032919Y015567D01*
X033419Y015567D01*
X033669Y015317D01*
X033919Y015567D01*
X034419Y015567D01*
X034669Y015317D01*
X034669Y014817D01*
X034419Y014567D01*
X033919Y014567D01*
X033669Y014817D01*
X033419Y014567D01*
X032919Y014567D01*
X032669Y014817D01*
X032419Y014567D01*
X031919Y014567D01*
X031669Y014817D01*
X031419Y014567D01*
X030919Y014567D01*
X030669Y014817D01*
X031669Y014817D02*
X031669Y015317D01*
X032669Y015317D02*
X032669Y014817D01*
X033669Y014817D02*
X033669Y015317D01*
X035696Y016191D02*
X036996Y016191D01*
X037022Y016193D01*
X037048Y016198D01*
X037073Y016206D01*
X037096Y016218D01*
X037118Y016232D01*
X037137Y016250D01*
X037155Y016269D01*
X037169Y016291D01*
X037181Y016314D01*
X037189Y016339D01*
X037194Y016365D01*
X037196Y016391D01*
X036846Y016641D02*
X036466Y016641D01*
X036216Y016641D02*
X035846Y016641D01*
X035496Y016391D02*
X035498Y016365D01*
X035503Y016339D01*
X035511Y016314D01*
X035523Y016291D01*
X035537Y016269D01*
X035555Y016250D01*
X035574Y016232D01*
X035596Y016218D01*
X035619Y016206D01*
X035644Y016198D01*
X035670Y016193D01*
X035696Y016191D01*
X035496Y016891D02*
X035498Y016917D01*
X035503Y016943D01*
X035511Y016968D01*
X035523Y016991D01*
X035537Y017013D01*
X035555Y017032D01*
X035574Y017050D01*
X035596Y017064D01*
X035619Y017076D01*
X035644Y017084D01*
X035670Y017089D01*
X035696Y017091D01*
X036996Y017091D01*
X037022Y017089D01*
X037048Y017084D01*
X037073Y017076D01*
X037096Y017064D01*
X037118Y017050D01*
X037137Y017032D01*
X037155Y017013D01*
X037169Y016991D01*
X037181Y016968D01*
X037189Y016943D01*
X037194Y016917D01*
X037196Y016891D01*
X039497Y016598D02*
X039497Y016248D01*
X039497Y015898D01*
X040597Y015898D01*
X040597Y016248D01*
X040597Y016598D01*
X039497Y016598D01*
X039497Y016248D02*
X039447Y016248D01*
X040597Y016248D02*
X040647Y016248D01*
X044874Y016641D02*
X044876Y016693D01*
X044882Y016745D01*
X044892Y016797D01*
X044905Y016847D01*
X044922Y016897D01*
X044943Y016945D01*
X044968Y016991D01*
X044996Y017035D01*
X045027Y017077D01*
X045061Y017117D01*
X045098Y017154D01*
X045138Y017188D01*
X045180Y017219D01*
X045224Y017247D01*
X045270Y017272D01*
X045318Y017293D01*
X045368Y017310D01*
X045418Y017323D01*
X045470Y017333D01*
X045522Y017339D01*
X045574Y017341D01*
X045626Y017339D01*
X045678Y017333D01*
X045730Y017323D01*
X045780Y017310D01*
X045830Y017293D01*
X045878Y017272D01*
X045924Y017247D01*
X045968Y017219D01*
X046010Y017188D01*
X046050Y017154D01*
X046087Y017117D01*
X046121Y017077D01*
X046152Y017035D01*
X046180Y016991D01*
X046205Y016945D01*
X046226Y016897D01*
X046243Y016847D01*
X046256Y016797D01*
X046266Y016745D01*
X046272Y016693D01*
X046274Y016641D01*
X046272Y016589D01*
X046266Y016537D01*
X046256Y016485D01*
X046243Y016435D01*
X046226Y016385D01*
X046205Y016337D01*
X046180Y016291D01*
X046152Y016247D01*
X046121Y016205D01*
X046087Y016165D01*
X046050Y016128D01*
X046010Y016094D01*
X045968Y016063D01*
X045924Y016035D01*
X045878Y016010D01*
X045830Y015989D01*
X045780Y015972D01*
X045730Y015959D01*
X045678Y015949D01*
X045626Y015943D01*
X045574Y015941D01*
X045522Y015943D01*
X045470Y015949D01*
X045418Y015959D01*
X045368Y015972D01*
X045318Y015989D01*
X045270Y016010D01*
X045224Y016035D01*
X045180Y016063D01*
X045138Y016094D01*
X045098Y016128D01*
X045061Y016165D01*
X045027Y016205D01*
X044996Y016247D01*
X044968Y016291D01*
X044943Y016337D01*
X044922Y016385D01*
X044905Y016435D01*
X044892Y016485D01*
X044882Y016537D01*
X044876Y016589D01*
X044874Y016641D01*
X040146Y022041D02*
X038696Y022041D01*
X038673Y022043D01*
X038650Y022048D01*
X038628Y022057D01*
X038608Y022070D01*
X038590Y022085D01*
X038575Y022103D01*
X038562Y022123D01*
X038553Y022145D01*
X038548Y022168D01*
X038546Y022191D01*
X038546Y023691D01*
X038548Y023714D01*
X038553Y023737D01*
X038562Y023759D01*
X038575Y023779D01*
X038590Y023797D01*
X038608Y023812D01*
X038628Y023825D01*
X038650Y023834D01*
X038673Y023839D01*
X038696Y023841D01*
X040146Y023841D01*
X040446Y023541D01*
X040446Y022341D01*
X040146Y022041D01*
X040196Y022281D02*
X040196Y022531D01*
X040066Y022401D02*
X040326Y022401D01*
X032703Y021287D02*
X032705Y021328D01*
X032711Y021369D01*
X032721Y021409D01*
X032734Y021448D01*
X032751Y021486D01*
X032772Y021522D01*
X032796Y021555D01*
X032823Y021586D01*
X032853Y021615D01*
X032885Y021641D01*
X032920Y021663D01*
X032957Y021682D01*
X032995Y021697D01*
X033035Y021709D01*
X033075Y021717D01*
X033116Y021721D01*
X033158Y021721D01*
X033199Y021717D01*
X033239Y021709D01*
X033279Y021697D01*
X033317Y021682D01*
X033354Y021663D01*
X033389Y021641D01*
X033421Y021615D01*
X033451Y021586D01*
X033478Y021555D01*
X033502Y021522D01*
X033523Y021486D01*
X033540Y021448D01*
X033553Y021409D01*
X033563Y021369D01*
X033569Y021328D01*
X033571Y021287D01*
X033569Y021246D01*
X033563Y021205D01*
X033553Y021165D01*
X033540Y021126D01*
X033523Y021088D01*
X033502Y021052D01*
X033478Y021019D01*
X033451Y020988D01*
X033421Y020959D01*
X033389Y020933D01*
X033354Y020911D01*
X033317Y020892D01*
X033279Y020877D01*
X033239Y020865D01*
X033199Y020857D01*
X033158Y020853D01*
X033116Y020853D01*
X033075Y020857D01*
X033035Y020865D01*
X032995Y020877D01*
X032957Y020892D01*
X032920Y020911D01*
X032885Y020933D01*
X032853Y020959D01*
X032823Y020988D01*
X032796Y021019D01*
X032772Y021052D01*
X032751Y021088D01*
X032734Y021126D01*
X032721Y021165D01*
X032711Y021205D01*
X032705Y021246D01*
X032703Y021287D01*
X031881Y021011D02*
X031881Y020571D01*
X031681Y020571D01*
X031681Y021011D01*
X031881Y021011D01*
X032011Y020571D02*
X030051Y020571D01*
X030051Y019671D01*
X030051Y019011D01*
X032011Y019011D01*
X032011Y020571D01*
X031381Y020571D02*
X031381Y021011D01*
X031181Y021011D01*
X031181Y020571D01*
X031381Y020571D01*
X030881Y020571D02*
X030881Y021011D01*
X030681Y021011D01*
X030681Y020571D01*
X030881Y020571D01*
X030381Y020571D02*
X030381Y021011D01*
X030181Y021011D01*
X030181Y020571D01*
X030381Y020571D01*
X029452Y020571D02*
X027492Y020571D01*
X027492Y019671D01*
X027492Y019011D01*
X029452Y019011D01*
X029452Y020571D01*
X029322Y020571D02*
X029322Y021011D01*
X029122Y021011D01*
X029122Y020571D01*
X029322Y020571D01*
X028822Y020571D02*
X028822Y021011D01*
X028622Y021011D01*
X028622Y020571D01*
X028822Y020571D01*
X028322Y020571D02*
X028322Y021011D01*
X028122Y021011D01*
X028122Y020571D01*
X028322Y020571D01*
X027822Y020571D02*
X027822Y021011D01*
X027622Y021011D01*
X027622Y020571D01*
X027822Y020571D01*
X026893Y020571D02*
X024933Y020571D01*
X024933Y019671D01*
X024933Y019011D01*
X026893Y019011D01*
X026893Y020571D01*
X026763Y020571D02*
X026763Y021011D01*
X026563Y021011D01*
X026563Y020571D01*
X026763Y020571D01*
X026263Y020571D02*
X026263Y021011D01*
X026063Y021011D01*
X026063Y020571D01*
X026263Y020571D01*
X025763Y020571D02*
X025763Y021011D01*
X025563Y021011D01*
X025563Y020571D01*
X025763Y020571D01*
X025263Y020571D02*
X025263Y021011D01*
X025063Y021011D01*
X025063Y020571D01*
X025263Y020571D01*
X025263Y019011D02*
X025263Y018571D01*
X025063Y018571D01*
X025063Y019011D01*
X025263Y019011D01*
X025563Y019011D02*
X025563Y018571D01*
X025763Y018571D01*
X025763Y019011D01*
X025563Y019011D01*
X026063Y019011D02*
X026063Y018571D01*
X026263Y018571D01*
X026263Y019011D01*
X026063Y019011D01*
X026563Y019011D02*
X026563Y018571D01*
X026763Y018571D01*
X026763Y019011D01*
X026563Y019011D01*
X027622Y019011D02*
X027622Y018571D01*
X027822Y018571D01*
X027822Y019011D01*
X027622Y019011D01*
X028122Y019011D02*
X028122Y018571D01*
X028322Y018571D01*
X028322Y019011D01*
X028122Y019011D01*
X028622Y019011D02*
X028622Y018571D01*
X028822Y018571D01*
X028822Y019011D01*
X028622Y019011D01*
X029122Y019011D02*
X029122Y018571D01*
X029322Y018571D01*
X029322Y019011D01*
X029122Y019011D01*
X030181Y019011D02*
X030181Y018571D01*
X030381Y018571D01*
X030381Y019011D01*
X030181Y019011D01*
X030681Y019011D02*
X030681Y018571D01*
X030881Y018571D01*
X030881Y019011D01*
X030681Y019011D01*
X031181Y019011D02*
X031181Y018571D01*
X031381Y018571D01*
X031381Y019011D01*
X031181Y019011D01*
X031681Y019011D02*
X031681Y018571D01*
X031881Y018571D01*
X031881Y019011D01*
X031681Y019011D01*
D12*
X032390Y022350D02*
X032697Y022350D01*
X032850Y022427D02*
X032927Y022350D01*
X033080Y022350D01*
X033157Y022427D01*
X033157Y022504D01*
X033080Y022581D01*
X032927Y022581D01*
X032850Y022657D01*
X032850Y022734D01*
X032927Y022811D01*
X033080Y022811D01*
X033157Y022734D01*
X033004Y022887D02*
X033004Y022274D01*
X033310Y022581D02*
X033541Y022811D01*
X033541Y022350D01*
X033617Y022581D02*
X033310Y022581D01*
X032697Y022811D02*
X032390Y022811D01*
X032390Y022350D01*
X032390Y022581D02*
X032543Y022581D01*
X040978Y022635D02*
X041132Y022635D01*
X041285Y022865D02*
X040978Y022865D01*
X040978Y022405D01*
X041285Y022405D01*
X041439Y022481D02*
X041515Y022405D01*
X041669Y022405D01*
X041746Y022481D01*
X041746Y022558D01*
X041669Y022635D01*
X041515Y022635D01*
X041439Y022712D01*
X041439Y022788D01*
X041515Y022865D01*
X041669Y022865D01*
X041746Y022788D01*
X041899Y022712D02*
X042053Y022865D01*
X042053Y022405D01*
X042206Y022405D02*
X041899Y022405D01*
X041592Y022328D02*
X041592Y022942D01*
X042360Y022788D02*
X042436Y022865D01*
X042590Y022865D01*
X042666Y022788D01*
X042666Y022712D01*
X042360Y022405D01*
X042666Y022405D01*
D13*
X042024Y022190D02*
X042024Y018179D01*
D14*
X041728Y018845D03*
X041728Y019515D03*
X041728Y020185D03*
X041728Y020855D03*
X041728Y021525D03*
D15*
X042798Y021042D02*
X045141Y021042D01*
X045141Y019327D01*
X042798Y019327D01*
X042798Y021042D01*
D16*
X040111Y021541D02*
X040035Y021466D01*
X039885Y021466D01*
X039810Y021541D01*
X039650Y021466D02*
X039350Y021466D01*
X039500Y021466D02*
X039500Y021916D01*
X039350Y021766D01*
X039190Y021841D02*
X039115Y021916D01*
X038965Y021916D01*
X038889Y021841D01*
X038889Y021766D01*
X038965Y021691D01*
X039115Y021691D01*
X039190Y021616D01*
X039190Y021541D01*
X039115Y021466D01*
X038965Y021466D01*
X038889Y021541D01*
X038729Y021466D02*
X038429Y021466D01*
X038429Y021916D01*
X038729Y021916D01*
X038579Y021691D02*
X038429Y021691D01*
X039040Y021991D02*
X039040Y021390D01*
X039810Y021841D02*
X039885Y021916D01*
X040035Y021916D01*
X040111Y021841D01*
X040111Y021766D01*
X040035Y021691D01*
X040111Y021616D01*
X040111Y021541D01*
X040035Y021691D02*
X039960Y021691D01*
X037349Y020524D02*
X037274Y020524D01*
X036974Y020824D01*
X036899Y020824D01*
X036899Y020524D01*
X036974Y020364D02*
X036899Y020289D01*
X036899Y020139D01*
X036974Y020064D01*
X037049Y020064D01*
X037124Y020139D01*
X037124Y020289D01*
X037199Y020364D01*
X037274Y020364D01*
X037349Y020289D01*
X037349Y020139D01*
X037274Y020064D01*
X037349Y019904D02*
X037349Y019603D01*
X036899Y019603D01*
X036899Y019904D01*
X037124Y019753D02*
X037124Y019603D01*
X036824Y020214D02*
X037424Y020214D01*
X038080Y019316D02*
X038155Y019316D01*
X038455Y019016D01*
X038530Y019016D01*
X038530Y018856D02*
X038530Y018556D01*
X038530Y018706D02*
X038080Y018706D01*
X038230Y018556D01*
X038155Y018395D02*
X038080Y018320D01*
X038080Y018170D01*
X038155Y018095D01*
X038230Y018095D01*
X038305Y018170D01*
X038305Y018320D01*
X038380Y018395D01*
X038455Y018395D01*
X038530Y018320D01*
X038530Y018170D01*
X038455Y018095D01*
X038530Y017935D02*
X038530Y017635D01*
X038080Y017635D01*
X038080Y017935D01*
X038305Y017785D02*
X038305Y017635D01*
X038005Y018245D02*
X038605Y018245D01*
X039186Y018245D02*
X039786Y018245D01*
X039711Y018170D02*
X039711Y018320D01*
X039636Y018395D01*
X039561Y018395D01*
X039486Y018320D01*
X039486Y018170D01*
X039411Y018095D01*
X039336Y018095D01*
X039261Y018170D01*
X039261Y018320D01*
X039336Y018395D01*
X039411Y018556D02*
X039261Y018706D01*
X039711Y018706D01*
X039711Y018556D02*
X039711Y018856D01*
X039636Y019016D02*
X039711Y019091D01*
X039711Y019241D01*
X039636Y019316D01*
X039336Y019316D01*
X039261Y019241D01*
X039261Y019091D01*
X039336Y019016D01*
X039411Y019016D01*
X039486Y019091D01*
X039486Y019316D01*
X039711Y018170D02*
X039636Y018095D01*
X039711Y017935D02*
X039711Y017635D01*
X039261Y017635D01*
X039261Y017935D01*
X039486Y017785D02*
X039486Y017635D01*
X038080Y019016D02*
X038080Y019316D01*
X037554Y016101D02*
X037554Y015500D01*
X037629Y015575D02*
X037704Y015650D01*
X037704Y015725D01*
X037629Y015801D01*
X037479Y015801D01*
X037404Y015876D01*
X037404Y015951D01*
X037479Y016026D01*
X037629Y016026D01*
X037704Y015951D01*
X037864Y015951D02*
X037864Y015876D01*
X037939Y015801D01*
X038164Y015801D01*
X038164Y015951D02*
X038089Y016026D01*
X037939Y016026D01*
X037864Y015951D01*
X038164Y015951D02*
X038164Y015650D01*
X038089Y015575D01*
X037939Y015575D01*
X037864Y015650D01*
X037629Y015575D02*
X037479Y015575D01*
X037404Y015650D01*
X037244Y015575D02*
X036943Y015575D01*
X036943Y016026D01*
X037244Y016026D01*
X037061Y016067D02*
X036911Y015992D01*
X036761Y015842D01*
X036986Y015842D01*
X037061Y015766D01*
X037061Y015691D01*
X036986Y015616D01*
X036836Y015616D01*
X036761Y015691D01*
X036761Y015842D01*
X036943Y015801D02*
X037094Y015801D01*
X036601Y015616D02*
X036300Y015616D01*
X036450Y015616D02*
X036450Y016067D01*
X036300Y015917D01*
X036140Y015992D02*
X036065Y016067D01*
X035915Y016067D01*
X035840Y015992D01*
X035840Y015917D01*
X035915Y015842D01*
X036065Y015842D01*
X036140Y015766D01*
X036140Y015691D01*
X036065Y015616D01*
X035915Y015616D01*
X035840Y015691D01*
X035680Y015616D02*
X035379Y015616D01*
X035379Y016067D01*
X035680Y016067D01*
X035530Y015842D02*
X035379Y015842D01*
X035990Y016142D02*
X035990Y015541D01*
X038980Y015498D02*
X039130Y015498D01*
X038980Y015723D02*
X038980Y015273D01*
X039281Y015273D01*
X039441Y015348D02*
X039516Y015273D01*
X039666Y015273D01*
X039741Y015348D01*
X039741Y015423D01*
X039666Y015498D01*
X039516Y015498D01*
X039441Y015573D01*
X039441Y015648D01*
X039516Y015723D01*
X039666Y015723D01*
X039741Y015648D01*
X039901Y015573D02*
X040051Y015723D01*
X040051Y015273D01*
X039901Y015273D02*
X040201Y015273D01*
X040361Y015348D02*
X040437Y015273D01*
X040587Y015273D01*
X040662Y015348D01*
X040662Y015498D01*
X040587Y015573D01*
X040512Y015573D01*
X040361Y015498D01*
X040361Y015723D01*
X040662Y015723D01*
X039591Y015798D02*
X039591Y015198D01*
X039281Y015723D02*
X038980Y015723D01*
X044458Y015817D02*
X044458Y015366D01*
X044758Y015366D01*
X044918Y015441D02*
X044993Y015366D01*
X045143Y015366D01*
X045218Y015441D01*
X045218Y015516D01*
X045143Y015592D01*
X044993Y015592D01*
X044918Y015667D01*
X044918Y015742D01*
X044993Y015817D01*
X045143Y015817D01*
X045218Y015742D01*
X045379Y015667D02*
X045529Y015817D01*
X045529Y015366D01*
X045379Y015366D02*
X045679Y015366D01*
X045839Y015592D02*
X046139Y015592D01*
X046064Y015817D02*
X045839Y015592D01*
X046064Y015366D02*
X046064Y015817D01*
X045068Y015892D02*
X045068Y015291D01*
X044608Y015592D02*
X044458Y015592D01*
X044458Y015817D02*
X044758Y015817D01*
X035046Y022781D02*
X035046Y022856D01*
X034971Y022931D01*
X034745Y022931D01*
X034745Y022781D01*
X034820Y022706D01*
X034971Y022706D01*
X035046Y022781D01*
X034895Y023081D02*
X034745Y022931D01*
X034585Y022856D02*
X034510Y022931D01*
X034360Y022931D01*
X034285Y023006D01*
X034285Y023081D01*
X034360Y023156D01*
X034510Y023156D01*
X034585Y023081D01*
X034435Y023232D02*
X034435Y022631D01*
X034360Y022706D02*
X034510Y022706D01*
X034585Y022781D01*
X034585Y022856D01*
X034360Y022706D02*
X034285Y022781D01*
X034125Y022706D02*
X033825Y022706D01*
X033825Y023156D01*
X034125Y023156D01*
X033975Y022931D02*
X033825Y022931D01*
X034895Y023081D02*
X035046Y023156D01*
X029140Y023128D02*
X029140Y022978D01*
X029065Y022903D01*
X028915Y022903D01*
X028840Y022978D01*
X028840Y023128D02*
X028990Y023203D01*
X029065Y023203D01*
X029140Y023128D01*
X029140Y023353D02*
X028840Y023353D01*
X028840Y023128D01*
X028680Y023053D02*
X028605Y023128D01*
X028454Y023128D01*
X028379Y023203D01*
X028379Y023278D01*
X028454Y023353D01*
X028605Y023353D01*
X028680Y023278D01*
X028530Y023428D02*
X028530Y022828D01*
X028605Y022903D02*
X028680Y022978D01*
X028680Y023053D01*
X028605Y022903D02*
X028454Y022903D01*
X028379Y022978D01*
X028219Y022903D02*
X027919Y022903D01*
X027919Y023353D01*
X028219Y023353D01*
X028069Y023128D02*
X027919Y023128D01*
X023810Y016262D02*
X023885Y016187D01*
X023885Y016112D01*
X023810Y016037D01*
X023660Y016037D01*
X023585Y016112D01*
X023585Y016187D01*
X023660Y016262D01*
X023810Y016262D01*
X023810Y016037D02*
X023885Y015962D01*
X023885Y015887D01*
X023810Y015812D01*
X023660Y015812D01*
X023585Y015887D01*
X023585Y015962D01*
X023660Y016037D01*
X023425Y015962D02*
X023349Y016037D01*
X023199Y016037D01*
X023124Y016112D01*
X023124Y016187D01*
X023199Y016262D01*
X023349Y016262D01*
X023425Y016187D01*
X023274Y016337D02*
X023274Y015736D01*
X023199Y015812D02*
X023349Y015812D01*
X023425Y015887D01*
X023425Y015962D01*
X023199Y015812D02*
X023124Y015887D01*
X022964Y015812D02*
X022664Y015812D01*
X022664Y016262D01*
X022964Y016262D01*
X022814Y016037D02*
X022664Y016037D01*
D17*
X040347Y016248D03*
D18*
X040086Y018080D02*
X040086Y019140D01*
X038905Y019140D02*
X038905Y018080D01*
X037724Y020048D02*
X037724Y021108D01*
X034711Y023531D02*
X033651Y023531D01*
X028805Y023728D02*
X027745Y023728D01*
D19*
X044594Y016641D03*
D20*
X036466Y016641D02*
X036466Y016341D01*
X036216Y016341D02*
X036216Y016641D01*
X036216Y016941D01*
X036466Y016941D02*
X036466Y016641D01*
D21*
X030051Y019671D02*
X030072Y019674D01*
X030092Y019680D01*
X030110Y019690D01*
X030127Y019702D01*
X030141Y019718D01*
X030152Y019735D01*
X030160Y019755D01*
X030165Y019775D01*
X030166Y019796D01*
X030163Y019817D01*
X030157Y019837D01*
X030147Y019855D01*
X030135Y019872D01*
X030119Y019886D01*
X030102Y019897D01*
X030082Y019905D01*
X030062Y019910D01*
X030041Y019911D01*
X027482Y019911D02*
X027503Y019910D01*
X027523Y019905D01*
X027543Y019897D01*
X027560Y019886D01*
X027576Y019872D01*
X027588Y019855D01*
X027598Y019837D01*
X027604Y019817D01*
X027607Y019796D01*
X027606Y019775D01*
X027601Y019755D01*
X027593Y019735D01*
X027582Y019718D01*
X027568Y019702D01*
X027551Y019690D01*
X027533Y019680D01*
X027513Y019674D01*
X027492Y019671D01*
X024933Y019671D02*
X024954Y019674D01*
X024974Y019680D01*
X024992Y019690D01*
X025009Y019702D01*
X025023Y019718D01*
X025034Y019735D01*
X025042Y019755D01*
X025047Y019775D01*
X025048Y019796D01*
X025045Y019817D01*
X025039Y019837D01*
X025029Y019855D01*
X025017Y019872D01*
X025001Y019886D01*
X024984Y019897D01*
X024964Y019905D01*
X024944Y019910D01*
X024923Y019911D01*
D22*
X025678Y019832D02*
X025756Y019910D01*
X025834Y019910D01*
X025913Y019832D01*
X025991Y019910D01*
X026070Y019910D01*
X026148Y019832D01*
X026148Y019675D01*
X026070Y019597D01*
X026070Y019450D02*
X025991Y019450D01*
X025913Y019372D01*
X025913Y019215D01*
X025834Y019136D01*
X025756Y019136D01*
X025678Y019215D01*
X025678Y019372D01*
X025756Y019450D01*
X025756Y019597D02*
X025678Y019675D01*
X025678Y019832D01*
X025913Y019832D02*
X025913Y019754D01*
X026070Y019450D02*
X026148Y019372D01*
X026148Y019215D01*
X026070Y019136D01*
X026148Y018990D02*
X026148Y018676D01*
X025678Y018676D01*
X025678Y018990D01*
X025913Y018833D02*
X025913Y018676D01*
X026226Y019293D02*
X025599Y019293D01*
X024880Y018800D02*
X024566Y018486D01*
X024566Y018643D02*
X024880Y018643D01*
X024880Y018486D02*
X024566Y018800D01*
X024723Y018800D02*
X024723Y018486D01*
X027125Y018486D02*
X027439Y018800D01*
X027282Y018800D02*
X027282Y018486D01*
X027439Y018486D02*
X027125Y018800D01*
X027125Y018643D02*
X027439Y018643D01*
X028237Y018676D02*
X028237Y018990D01*
X028315Y019136D02*
X028237Y019215D01*
X028237Y019372D01*
X028315Y019450D01*
X028393Y019597D02*
X028237Y019754D01*
X028707Y019754D01*
X028707Y019910D02*
X028707Y019597D01*
X028629Y019450D02*
X028550Y019450D01*
X028472Y019372D01*
X028472Y019215D01*
X028393Y019136D01*
X028315Y019136D01*
X028158Y019293D02*
X028785Y019293D01*
X028707Y019215D02*
X028707Y019372D01*
X028629Y019450D01*
X028707Y019215D02*
X028629Y019136D01*
X028707Y018990D02*
X028707Y018676D01*
X028237Y018676D01*
X028472Y018676D02*
X028472Y018833D01*
X029684Y018800D02*
X029998Y018486D01*
X029998Y018643D02*
X029684Y018643D01*
X029684Y018486D02*
X029998Y018800D01*
X029841Y018800D02*
X029841Y018486D01*
X030796Y018676D02*
X030796Y018990D01*
X030874Y019136D02*
X030796Y019215D01*
X030796Y019372D01*
X030874Y019450D01*
X030874Y019597D02*
X030796Y019675D01*
X030796Y019832D01*
X030874Y019910D01*
X030953Y019910D01*
X031266Y019597D01*
X031266Y019910D01*
X031188Y019450D02*
X031109Y019450D01*
X031031Y019372D01*
X031031Y019215D01*
X030953Y019136D01*
X030874Y019136D01*
X030717Y019293D02*
X031345Y019293D01*
X031266Y019215D02*
X031266Y019372D01*
X031188Y019450D01*
X031266Y019215D02*
X031188Y019136D01*
X031266Y018990D02*
X031266Y018676D01*
X030796Y018676D01*
X031031Y018676D02*
X031031Y018833D01*
M02*
