G75*
%MOIN*%
%OFA0B0*%
%FSLAX24Y24*%
%IPPOS*%
%LPD*%
%AMOC8*
5,1,8,0,0,1.08239X$1,22.5*
%
%ADD10C,0.0520*%
%ADD11C,0.0710*%
%ADD12OC8,0.0710*%
%ADD13OC8,0.0600*%
%ADD14OC8,0.0905*%
%ADD15C,0.0680*%
%ADD16C,0.0780*%
%ADD17C,0.0516*%
%ADD18R,0.0476X0.0476*%
D10*
X033141Y021287D03*
X034141Y021287D03*
X035141Y021287D03*
D11*
X039996Y022941D03*
D12*
X038996Y022941D03*
X037724Y021578D03*
X035181Y023531D03*
X033181Y023531D03*
X029275Y023728D03*
X027275Y023728D03*
X037724Y019578D03*
X038905Y019610D03*
X040086Y019610D03*
X040086Y017610D03*
X038905Y017610D03*
D13*
X037346Y016641D03*
X039047Y016248D03*
X041047Y016248D03*
X035346Y016641D03*
D14*
X043574Y016641D03*
X045574Y016641D03*
D15*
X023169Y015367D02*
X023169Y014767D01*
X024169Y014767D02*
X024169Y015367D01*
X025169Y015367D02*
X025169Y014767D01*
X026169Y014767D02*
X026169Y015367D01*
X027169Y015367D02*
X027169Y014767D01*
X028169Y014767D02*
X028169Y015367D01*
X029169Y015367D02*
X029169Y014767D01*
X030169Y014767D02*
X030169Y015367D01*
X031169Y015367D02*
X031169Y014767D01*
X032169Y014767D02*
X032169Y015367D01*
X033169Y015367D02*
X033169Y014767D01*
X034169Y014767D02*
X034169Y015367D01*
D16*
X037448Y014830D03*
D17*
X040874Y018807D03*
X040874Y019594D03*
X040874Y020185D03*
X040874Y020972D03*
X040874Y021563D03*
D18*
X040677Y024319D03*
X042842Y024319D03*
X031346Y022232D03*
X030834Y022232D03*
X028748Y022193D03*
X028196Y022193D03*
X026189Y022193D03*
X025677Y022193D03*
M02*
