G75*
%MOIN*%
%OFA0B0*%
%FSLAX24Y24*%
%IPPOS*%
%LPD*%
%AMOC8*
5,1,8,0,0,1.08239X$1,22.5*
%
%ADD10C,0.0440*%
%ADD11R,0.3500X0.4200*%
%ADD12R,0.0900X0.0420*%
%ADD13C,0.0630*%
%ADD14OC8,0.0630*%
%ADD15OC8,0.0520*%
%ADD16OC8,0.0825*%
%ADD17R,0.0240X0.0900*%
%ADD18C,0.0600*%
%ADD19C,0.0700*%
%ADD20C,0.0436*%
%ADD21R,0.0396X0.0396*%
D10*
X033141Y021287D03*
X034141Y021287D03*
X035141Y021287D03*
D11*
X044417Y020185D03*
D12*
X040967Y020185D03*
X040967Y020855D03*
X040967Y021525D03*
X040967Y019515D03*
X040967Y018845D03*
D13*
X039996Y022941D03*
D14*
X038996Y022941D03*
X037724Y021578D03*
X035181Y023531D03*
X033181Y023531D03*
X029275Y023728D03*
X027275Y023728D03*
X037724Y019578D03*
X038905Y019610D03*
X040086Y019610D03*
X040086Y017610D03*
X038905Y017610D03*
D15*
X037346Y016641D03*
X039047Y016248D03*
X041047Y016248D03*
X035346Y016641D03*
D16*
X043574Y016641D03*
X045574Y016641D03*
D17*
X031781Y018801D03*
X031281Y018801D03*
X030781Y018801D03*
X030281Y018801D03*
X029222Y018801D03*
X028722Y018801D03*
X028222Y018801D03*
X027722Y018801D03*
X026663Y018801D03*
X026163Y018801D03*
X025663Y018801D03*
X025163Y018801D03*
X025163Y020781D03*
X025663Y020781D03*
X026163Y020781D03*
X026663Y020781D03*
X027722Y020781D03*
X028222Y020781D03*
X028722Y020781D03*
X029222Y020781D03*
X030281Y020781D03*
X030781Y020781D03*
X031281Y020781D03*
X031781Y020781D03*
D18*
X023169Y015367D02*
X023169Y014767D01*
X024169Y014767D02*
X024169Y015367D01*
X025169Y015367D02*
X025169Y014767D01*
X026169Y014767D02*
X026169Y015367D01*
X027169Y015367D02*
X027169Y014767D01*
X028169Y014767D02*
X028169Y015367D01*
X029169Y015367D02*
X029169Y014767D01*
X030169Y014767D02*
X030169Y015367D01*
X031169Y015367D02*
X031169Y014767D01*
X032169Y014767D02*
X032169Y015367D01*
X033169Y015367D02*
X033169Y014767D01*
X034169Y014767D02*
X034169Y015367D01*
D19*
X037448Y014830D03*
D20*
X040874Y018807D03*
X040874Y019594D03*
X040874Y020185D03*
X040874Y020972D03*
X040874Y021563D03*
D21*
X040677Y024319D03*
X042842Y024319D03*
X031346Y022232D03*
X030834Y022232D03*
X028748Y022193D03*
X028196Y022193D03*
X026189Y022193D03*
X025677Y022193D03*
M02*
