G75*
%MOIN*%
%OFA0B0*%
%FSLAX24Y24*%
%IPPOS*%
%LPD*%
%AMOC8*
5,1,8,0,0,1.08239X$1,22.5*
%
%ADD10R,0.0410X0.0220*%
%ADD11R,0.0670X0.0770*%
%ADD12C,0.0380*%
%ADD13C,0.0060*%
%ADD14OC8,0.0840*%
D10*
X004750Y001750D03*
X004750Y002000D03*
X004750Y002260D03*
X004750Y002510D03*
X005910Y002510D03*
X005910Y002260D03*
X005910Y002000D03*
X005910Y001750D03*
X005910Y003750D03*
X005910Y004000D03*
X005910Y004260D03*
X005910Y004510D03*
X004750Y004510D03*
X004750Y004260D03*
X004750Y004000D03*
X004750Y003750D03*
X004750Y005750D03*
X004750Y006000D03*
X004750Y006260D03*
X004750Y006510D03*
X005910Y006510D03*
X005910Y006260D03*
X005910Y006000D03*
X005910Y005750D03*
D11*
X005330Y006130D03*
X005330Y004130D03*
X005330Y002130D03*
D12*
X005330Y002290D03*
X005330Y001970D03*
X005330Y003970D03*
X005330Y004290D03*
X005330Y005970D03*
X005330Y006290D03*
D13*
X005210Y006470D02*
X005110Y006470D01*
X005110Y006750D01*
X005210Y006750D01*
X005210Y006470D01*
X005250Y006500D02*
X005410Y006500D01*
X005410Y005760D01*
X005650Y005760D01*
X005650Y005900D01*
X005650Y006360D01*
X005010Y006360D01*
X005010Y005900D01*
X005010Y005760D01*
X005250Y005760D01*
X005250Y006500D01*
X005010Y006500D01*
X005010Y006360D01*
X004940Y006350D02*
X004550Y006350D01*
X004550Y006160D01*
X004940Y006160D01*
X004940Y006350D01*
X004940Y006420D02*
X004940Y006610D01*
X004550Y006610D01*
X004550Y006420D01*
X004940Y006420D01*
X005010Y006210D02*
X005010Y006050D01*
X005650Y006050D01*
X005650Y006210D01*
X005010Y006210D01*
X004940Y006100D02*
X004550Y006100D01*
X004550Y005910D01*
X004940Y005910D01*
X004940Y006100D01*
X005010Y005900D02*
X005650Y005900D01*
X005720Y005910D02*
X006110Y005910D01*
X006110Y006100D01*
X005720Y006100D01*
X005720Y005910D01*
X005720Y005840D02*
X006110Y005840D01*
X006110Y005650D01*
X005720Y005650D01*
X005720Y005840D01*
X005550Y005790D02*
X005450Y005790D01*
X005450Y005510D01*
X005550Y005510D01*
X005550Y005790D01*
X005410Y005760D02*
X005250Y005760D01*
X005210Y005790D02*
X005110Y005790D01*
X005110Y005510D01*
X005210Y005510D01*
X005210Y005790D01*
X004940Y005840D02*
X004940Y005650D01*
X004550Y005650D01*
X004550Y005840D01*
X004940Y005840D01*
X005410Y006500D02*
X005650Y006500D01*
X005650Y006360D01*
X005720Y006350D02*
X006110Y006350D01*
X006110Y006160D01*
X005720Y006160D01*
X005720Y006350D01*
X005720Y006420D02*
X006110Y006420D01*
X006110Y006610D01*
X005720Y006610D01*
X005720Y006420D01*
X005550Y006470D02*
X005450Y006470D01*
X005450Y006750D01*
X005550Y006750D01*
X005550Y006470D01*
X005550Y004750D02*
X005450Y004750D01*
X005450Y004470D01*
X005550Y004470D01*
X005550Y004750D01*
X005720Y004610D02*
X006110Y004610D01*
X006110Y004420D01*
X005720Y004420D01*
X005720Y004610D01*
X005650Y004500D02*
X005410Y004500D01*
X005410Y003760D01*
X005650Y003760D01*
X005650Y003900D01*
X005650Y004360D01*
X005010Y004360D01*
X005010Y003900D01*
X005010Y003760D01*
X005250Y003760D01*
X005250Y004500D01*
X005410Y004500D01*
X005250Y004500D02*
X005010Y004500D01*
X005010Y004360D01*
X004940Y004350D02*
X004550Y004350D01*
X004550Y004160D01*
X004940Y004160D01*
X004940Y004350D01*
X004940Y004420D02*
X004940Y004610D01*
X004550Y004610D01*
X004550Y004420D01*
X004940Y004420D01*
X005110Y004470D02*
X005210Y004470D01*
X005210Y004750D01*
X005110Y004750D01*
X005110Y004470D01*
X005010Y004210D02*
X005010Y004050D01*
X005650Y004050D01*
X005650Y004210D01*
X005010Y004210D01*
X004940Y004100D02*
X004550Y004100D01*
X004550Y003910D01*
X004940Y003910D01*
X004940Y004100D01*
X005010Y003900D02*
X005650Y003900D01*
X005720Y003910D02*
X006110Y003910D01*
X006110Y004100D01*
X005720Y004100D01*
X005720Y003910D01*
X005720Y003840D02*
X006110Y003840D01*
X006110Y003650D01*
X005720Y003650D01*
X005720Y003840D01*
X005550Y003790D02*
X005450Y003790D01*
X005450Y003510D01*
X005550Y003510D01*
X005550Y003790D01*
X005410Y003760D02*
X005250Y003760D01*
X005210Y003790D02*
X005110Y003790D01*
X005110Y003510D01*
X005210Y003510D01*
X005210Y003790D01*
X004940Y003840D02*
X004940Y003650D01*
X004550Y003650D01*
X004550Y003840D01*
X004940Y003840D01*
X005720Y004160D02*
X006110Y004160D01*
X006110Y004350D01*
X005720Y004350D01*
X005720Y004160D01*
X005650Y004360D02*
X005650Y004500D01*
X005550Y002750D02*
X005450Y002750D01*
X005450Y002470D01*
X005550Y002470D01*
X005550Y002750D01*
X005720Y002610D02*
X006110Y002610D01*
X006110Y002420D01*
X005720Y002420D01*
X005720Y002610D01*
X005650Y002500D02*
X005410Y002500D01*
X005410Y001760D01*
X005650Y001760D01*
X005650Y001900D01*
X005650Y002360D01*
X005010Y002360D01*
X005010Y001900D01*
X005010Y001760D01*
X005250Y001760D01*
X005250Y002500D01*
X005410Y002500D01*
X005250Y002500D02*
X005010Y002500D01*
X005010Y002360D01*
X004940Y002350D02*
X004550Y002350D01*
X004550Y002160D01*
X004940Y002160D01*
X004940Y002350D01*
X004940Y002420D02*
X004940Y002610D01*
X004550Y002610D01*
X004550Y002420D01*
X004940Y002420D01*
X005110Y002470D02*
X005210Y002470D01*
X005210Y002750D01*
X005110Y002750D01*
X005110Y002470D01*
X005010Y002210D02*
X005010Y002050D01*
X005650Y002050D01*
X005650Y002210D01*
X005010Y002210D01*
X004940Y002100D02*
X004550Y002100D01*
X004550Y001910D01*
X004940Y001910D01*
X004940Y002100D01*
X005010Y001900D02*
X005650Y001900D01*
X005720Y001910D02*
X006110Y001910D01*
X006110Y002100D01*
X005720Y002100D01*
X005720Y001910D01*
X005720Y001840D02*
X006110Y001840D01*
X006110Y001650D01*
X005720Y001650D01*
X005720Y001840D01*
X005550Y001790D02*
X005450Y001790D01*
X005450Y001510D01*
X005550Y001510D01*
X005550Y001790D01*
X005410Y001760D02*
X005250Y001760D01*
X005210Y001790D02*
X005110Y001790D01*
X005110Y001510D01*
X005210Y001510D01*
X005210Y001790D01*
X004940Y001840D02*
X004940Y001650D01*
X004550Y001650D01*
X004550Y001840D01*
X004940Y001840D01*
X005720Y002160D02*
X006110Y002160D01*
X006110Y002350D01*
X005720Y002350D01*
X005720Y002160D01*
X005650Y002360D02*
X005650Y002500D01*
D14*
X000830Y000630D03*
X001830Y000630D03*
X001830Y002130D03*
X000830Y002130D03*
X000830Y003630D03*
X001830Y003630D03*
X001830Y005130D03*
X000830Y005130D03*
X000830Y006630D03*
X001830Y006630D03*
X001830Y008130D03*
X000830Y008130D03*
X000830Y008130D03*
X008830Y008130D03*
X008830Y008130D03*
X009830Y008130D03*
X009830Y006630D03*
X008830Y006630D03*
X008830Y005130D03*
X009830Y005130D03*
X009830Y003630D03*
X008830Y003630D03*
X008830Y002130D03*
X009830Y002130D03*
X009830Y000630D03*
X008830Y000630D03*
M02*
