%
M48
M72
T01C0.0100
T02C0.0400
%
T01
X5330Y1970
X5330Y2290
X5330Y3970
X5330Y4290
X5330Y5970
X5330Y6290
T02
X830Y630
X1830Y630
X1830Y2130
X830Y2130
X830Y3630
X1830Y3630
X1830Y5130
X830Y5130
X830Y6630
X1830Y6630
X1830Y8130
X830Y8130
X830Y8130
X8830Y8130
X8830Y8130
X9830Y8130
X9830Y6630
X8830Y6630
X8830Y5130
X9830Y5130
X9830Y3630
X8830Y3630
X8830Y2130
X9830Y2130
X9830Y630
X8830Y630
M30
